<?xml version="1.0" encoding="iso-8859-1"?>
<!-- Generator: Adobe Illustrator 17.0.0, SVG Export Plug-In . SVG Version: 6.00 Build 0)  -->
<!DOCTYPE svg PUBLIC "-//W3C//DTD SVG 1.1//EN" "http://www.w3.org/Graphics/SVG/1.1/DTD/svg11.dtd">
<svg version="1.1" id="Livello_1" xmlns="http://www.w3.org/2000/svg" xmlns:xlink="http://www.w3.org/1999/xlink" x="0px" y="0px"
	 width="789px" height="505px" viewBox="0 0 789 505" style="enable-background:new 0 0 789 505;" xml:space="preserve">
<g>
	<g>
		<g>
			<defs>
				<rect id="SVGID_1_" x="0" width="789" height="505"/>
			</defs>
			<clipPath id="SVGID_2_">
				<use xlink:href="#SVGID_1_"  style="overflow:visible;"/>
			</clipPath>
			<rect x="0" style="clip-path:url(#SVGID_2_);fill:#FFFFFF;" width="789" height="505"/>
		</g>
	</g>
	<g transform="scale(1.3333,1.3333) translate(-38.5,-8.8672)">
		<g>
			<defs>
				<rect id="SVGID_3_" x="-60.115" y="-54.251" width="788.98" height="504.987"/>
			</defs>
			<clipPath id="SVGID_4_">
				<use xlink:href="#SVGID_3_"  style="overflow:visible;"/>
			</clipPath>
			<circle style="clip-path:url(#SVGID_4_);fill:#C0C0C0;fill-opacity:0.502;" cx="74" cy="188" r="9"/>
		</g>
		<g>
			<defs>
				<rect id="SVGID_5_" x="-60.115" y="-54.251" width="788.98" height="504.987"/>
			</defs>
			<clipPath id="SVGID_6_">
				<use xlink:href="#SVGID_5_"  style="overflow:visible;"/>
			</clipPath>
			
				<circle style="clip-path:url(#SVGID_6_);fill:none;stroke:#C0C0C0;stroke-width:2;stroke-linecap:square;stroke-miterlimit:10;stroke-opacity:0.502;" cx="74" cy="188" r="9"/>
		</g>
	</g>
	<g transform="matrix(1.3333,0,0,1.3333,-58,-18.4896)">
		<g>
			<defs>
				<rect id="SVGID_7_" x="-55.115" y="-49.251" width="788.98" height="504.987"/>
			</defs>
			<clipPath id="SVGID_8_">
				<use xlink:href="#SVGID_7_"  style="overflow:visible;"/>
			</clipPath>
			
				<linearGradient id="SVGID_9_" gradientUnits="userSpaceOnUse" x1="115.1416" y1="303.4037" x2="133.1416" y2="285.4037" gradientTransform="matrix(1.3333 0 0 -1.3333 -88.5183 583.5281)">
				<stop  offset="0" style="stop-color:#FFFFFF"/>
				<stop  offset="1" style="stop-color:#FFFFCC"/>
			</linearGradient>
			<circle style="clip-path:url(#SVGID_8_);fill:url(#SVGID_9_);" cx="74" cy="188" r="9"/>
		</g>
		<g>
			<defs>
				<rect id="SVGID_10_" x="-55.115" y="-49.251" width="788.98" height="504.987"/>
			</defs>
			<clipPath id="SVGID_11_">
				<use xlink:href="#SVGID_10_"  style="overflow:visible;"/>
			</clipPath>
			
				<circle style="clip-path:url(#SVGID_11_);fill:none;stroke:#000000;stroke-width:2;stroke-linecap:square;stroke-miterlimit:10;" cx="74" cy="188" r="9"/>
		</g>
	</g>
	<g transform="matrix(1.3333,0,0,1.3333,-58,-18.4896) translate(5,5)">
		<g>
			<defs>
				<rect id="SVGID_12_" x="-60.115" y="-54.251" width="788.98" height="504.987"/>
			</defs>
			<clipPath id="SVGID_13_">
				<use xlink:href="#SVGID_12_"  style="overflow:visible;"/>
			</clipPath>
			
				<line style="clip-path:url(#SVGID_13_);fill:none;stroke:#C0C0C0;stroke-width:2;stroke-linecap:square;stroke-miterlimit:10;stroke-opacity:0.502;" x1="74" y1="197" x2="74" y2="215"/>
		</g>
	</g>
	<g transform="matrix(1.3333,0,0,1.3333,-58,-18.4896)">
		<g>
			<defs>
				<rect id="SVGID_14_" x="-55.115" y="-49.251" width="788.98" height="504.987"/>
			</defs>
			<clipPath id="SVGID_15_">
				<use xlink:href="#SVGID_14_"  style="overflow:visible;"/>
			</clipPath>
			
				<line style="clip-path:url(#SVGID_15_);fill:none;stroke:#000000;stroke-width:2;stroke-linecap:square;stroke-miterlimit:10;" x1="74" y1="197" x2="74" y2="215"/>
		</g>
	</g>
	<g transform="matrix(1.3333,0,0,1.3333,-58,-18.4896) translate(5,5)">
		<g>
			<defs>
				<rect id="SVGID_16_" x="-60.115" y="-54.251" width="788.98" height="504.987"/>
			</defs>
			<clipPath id="SVGID_17_">
				<use xlink:href="#SVGID_16_"  style="overflow:visible;"/>
			</clipPath>
			
				<line style="clip-path:url(#SVGID_17_);fill:none;stroke:#C0C0C0;stroke-width:2;stroke-linecap:square;stroke-miterlimit:10;stroke-opacity:0.502;" x1="60" y1="203.75" x2="88" y2="203.75"/>
		</g>
	</g>
	<g transform="matrix(1.3333,0,0,1.3333,-58,-18.4896)">
		<g>
			<defs>
				<rect id="SVGID_18_" x="-55.115" y="-49.251" width="788.98" height="504.987"/>
			</defs>
			<clipPath id="SVGID_19_">
				<use xlink:href="#SVGID_18_"  style="overflow:visible;"/>
			</clipPath>
			
				<line style="clip-path:url(#SVGID_19_);fill:none;stroke:#000000;stroke-width:2;stroke-linecap:square;stroke-miterlimit:10;" x1="60" y1="203.75" x2="88" y2="203.75"/>
		</g>
	</g>
	<g transform="matrix(1.3333,0,0,1.3333,-58,-18.4896) translate(5,5)">
		<g>
			<defs>
				<rect id="SVGID_20_" x="-60.115" y="-54.251" width="788.98" height="504.987"/>
			</defs>
			<clipPath id="SVGID_21_">
				<use xlink:href="#SVGID_20_"  style="overflow:visible;"/>
			</clipPath>
			
				<line style="clip-path:url(#SVGID_21_);fill:none;stroke:#C0C0C0;stroke-width:2;stroke-linecap:square;stroke-miterlimit:10;stroke-opacity:0.502;" x1="74" y1="215" x2="60" y2="234"/>
		</g>
	</g>
	<g transform="matrix(1.3333,0,0,1.3333,-58,-18.4896)">
		<g>
			<defs>
				<rect id="SVGID_22_" x="-55.115" y="-49.251" width="788.98" height="504.987"/>
			</defs>
			<clipPath id="SVGID_23_">
				<use xlink:href="#SVGID_22_"  style="overflow:visible;"/>
			</clipPath>
			
				<line style="clip-path:url(#SVGID_23_);fill:none;stroke:#000000;stroke-width:2;stroke-linecap:square;stroke-miterlimit:10;" x1="74" y1="215" x2="60" y2="234"/>
		</g>
	</g>
	<g transform="matrix(1.3333,0,0,1.3333,-58,-18.4896) translate(5,5)">
		<g>
			<defs>
				<rect id="SVGID_24_" x="-60.115" y="-54.251" width="788.98" height="504.987"/>
			</defs>
			<clipPath id="SVGID_25_">
				<use xlink:href="#SVGID_24_"  style="overflow:visible;"/>
			</clipPath>
			
				<line style="clip-path:url(#SVGID_25_);fill:none;stroke:#C0C0C0;stroke-width:2;stroke-linecap:square;stroke-miterlimit:10;stroke-opacity:0.502;" x1="74" y1="215" x2="88" y2="234"/>
		</g>
	</g>
	<g transform="matrix(1.3333,0,0,1.3333,-58,-18.4896)">
		<g>
			<defs>
				<rect id="SVGID_26_" x="-55.115" y="-49.251" width="788.98" height="504.987"/>
			</defs>
			<clipPath id="SVGID_27_">
				<use xlink:href="#SVGID_26_"  style="overflow:visible;"/>
			</clipPath>
			
				<line style="clip-path:url(#SVGID_27_);fill:none;stroke:#000000;stroke-width:2;stroke-linecap:square;stroke-miterlimit:10;" x1="74" y1="215" x2="88" y2="234"/>
		</g>
	</g>
	<g transform="matrix(1.3333,0,0,1.3333,-58,-18.4896) translate(53.5,246)">
		<g>
			<defs>
				<rect id="SVGID_28_" x="-108.615" y="-295.251" width="788.98" height="504.987"/>
			</defs>
			<clipPath id="SVGID_29_">
				<use xlink:href="#SVGID_28_"  style="overflow:visible;"/>
			</clipPath>
			<path style="clip-path:url(#SVGID_29_);" d="M1.014-8.672h1.805v5.314c0,0.84,0.139,1.446,0.416,1.819s0.725,0.56,1.342,0.56
				c0.59,0,1.017-0.178,1.28-0.533C6.12-1.867,6.252-2.439,6.252-3.228v-5.443h1.57v5.326c0,0.801-0.076,1.411-0.228,1.831
				c-0.152,0.42-0.43,0.784-0.832,1.093C6.211,0.004,5.471,0.217,4.541,0.217c-0.996,0-1.797-0.227-2.402-0.68
				c-0.418-0.312-0.71-0.683-0.876-1.11s-0.249-1.024-0.249-1.79V-8.672z M13.236-0.035c-0.414,0.121-0.74,0.182-0.979,0.182
				c-1.504,0-2.256-0.703-2.256-2.109V-5.35H9.281v-1.084h0.721v-1.084l1.734-0.199v1.283h1.377v1.084h-1.377v3.158
				c0,0.789,0.322,1.184,0.967,1.184c0.148,0,0.326-0.027,0.533-0.082V-0.035z M20.021-0.217c-0.824,0.242-1.605,0.363-2.344,0.363
				c-1.074,0-1.922-0.305-2.543-0.914c-0.621-0.609-0.932-1.441-0.932-2.496c0-0.996,0.284-1.798,0.853-2.405
				c0.568-0.607,1.319-0.911,2.253-0.911c0.941,0,1.629,0.297,2.062,0.891c0.434,0.594,0.65,1.533,0.65,2.818h-3.99
				c0.117,1.227,0.791,1.84,2.021,1.84c0.582,0,1.238-0.135,1.969-0.404V-0.217z M16.008-3.85h2.309
				c0-1.098-0.354-1.647-1.061-1.647C16.537-5.496,16.121-4.947,16.008-3.85z M21.815,0v-6.434h1.734v1.213
				c0.566-0.906,1.297-1.359,2.191-1.359c0.574,0,1.027,0.182,1.359,0.545c0.332,0.363,0.498,0.859,0.498,1.488V0h-1.734v-4.119
				c0-0.73-0.242-1.096-0.727-1.096c-0.551,0-1.08,0.389-1.588,1.166V0H21.815z M33.012-0.035c-0.414,0.121-0.74,0.182-0.979,0.182
				c-1.504,0-2.256-0.703-2.256-2.109V-5.35h-0.721v-1.084h0.721v-1.084l1.734-0.199v1.283h1.377v1.084h-1.377v3.158
				c0,0.789,0.322,1.184,0.967,1.184c0.148,0,0.326-0.027,0.533-0.082V-0.035z M39.797-0.217c-0.824,0.242-1.606,0.363-2.344,0.363
				c-1.074,0-1.922-0.305-2.543-0.914c-0.621-0.609-0.932-1.441-0.932-2.496c0-0.996,0.284-1.798,0.853-2.405
				c0.568-0.607,1.319-0.911,2.253-0.911c0.941,0,1.629,0.297,2.062,0.891c0.434,0.594,0.65,1.533,0.65,2.818h-3.99
				c0.117,1.227,0.791,1.84,2.021,1.84c0.582,0,1.238-0.135,1.969-0.404V-0.217z M35.783-3.85h2.309
				c0-1.098-0.354-1.647-1.061-1.647C36.312-5.496,35.896-4.947,35.783-3.85z"/>
		</g>
	</g>
	<g transform="matrix(1.3333,0,0,1.3333,-58,-18.4896) translate(5,5)">
		<g>
			<defs>
				<rect id="SVGID_30_" x="-60.115" y="-54.251" width="788.98" height="504.987"/>
			</defs>
			<clipPath id="SVGID_31_">
				<use xlink:href="#SVGID_30_"  style="overflow:visible;"/>
			</clipPath>
			
				<rect x="214" y="47" style="clip-path:url(#SVGID_31_);fill:none;stroke:#C0C0C0;stroke-linecap:square;stroke-miterlimit:10;stroke-opacity:0.502;" width="411" height="335.867"/>
		</g>
	</g>
	<g transform="matrix(1.3333,0,0,1.3333,-58,-18.4896)">
		<g>
			<defs>
				<rect id="SVGID_32_" x="-55.115" y="-49.251" width="788.98" height="504.987"/>
			</defs>
			<clipPath id="SVGID_33_">
				<use xlink:href="#SVGID_32_"  style="overflow:visible;"/>
			</clipPath>
			
				<rect x="214" y="47" style="clip-path:url(#SVGID_33_);fill:none;stroke:#000000;stroke-linecap:square;stroke-miterlimit:10;" width="411" height="335.867"/>
		</g>
	</g>
	<g transform="matrix(1.3333,0,0,1.3333,-58,-18.4896) translate(5,5)">
		<g>
			<defs>
				<rect id="SVGID_34_" x="-60.115" y="-54.251" width="788.98" height="504.987"/>
			</defs>
			<clipPath id="SVGID_35_">
				<use xlink:href="#SVGID_34_"  style="overflow:visible;"/>
			</clipPath>
			<ellipse style="clip-path:url(#SVGID_35_);fill:#C0C0C0;fill-opacity:0.502;" cx="320.5" cy="102.127" rx="86.5" ry="41.392"/>
		</g>
		<g>
			<defs>
				<rect id="SVGID_36_" x="-60.115" y="-54.251" width="788.98" height="504.987"/>
			</defs>
			<clipPath id="SVGID_37_">
				<use xlink:href="#SVGID_36_"  style="overflow:visible;"/>
			</clipPath>
			
				<ellipse style="clip-path:url(#SVGID_37_);fill:none;stroke:#C0C0C0;stroke-width:2;stroke-linecap:square;stroke-miterlimit:10;stroke-opacity:0.502;" cx="320.5" cy="102.127" rx="86.5" ry="41.392"/>
		</g>
	</g>
	<g transform="matrix(1.3333,0,0,1.3333,-58,-18.4896)">
		<g>
			<defs>
				<rect id="SVGID_38_" x="-55.115" y="-49.251" width="788.98" height="504.987"/>
			</defs>
			<clipPath id="SVGID_39_">
				<use xlink:href="#SVGID_38_"  style="overflow:visible;"/>
			</clipPath>
			
				<linearGradient id="SVGID_40_" gradientUnits="userSpaceOnUse" x1="241.8574" y1="392.579" x2="414.8575" y2="308.5789" gradientTransform="matrix(1.3333 0 0 -1.3333 -88.5183 583.5281)">
				<stop  offset="0" style="stop-color:#FFFFFF"/>
				<stop  offset="1" style="stop-color:#FFFFCC"/>
			</linearGradient>
			<ellipse style="clip-path:url(#SVGID_39_);fill:url(#SVGID_40_);" cx="320.5" cy="102.127" rx="86.5" ry="41.392"/>
		</g>
		<g>
			<defs>
				<rect id="SVGID_41_" x="-55.115" y="-49.251" width="788.98" height="504.987"/>
			</defs>
			<clipPath id="SVGID_42_">
				<use xlink:href="#SVGID_41_"  style="overflow:visible;"/>
			</clipPath>
			
				<ellipse style="clip-path:url(#SVGID_42_);fill:none;stroke:#000000;stroke-width:2;stroke-linecap:square;stroke-miterlimit:10;" cx="320.5" cy="102.127" rx="86.5" ry="41.392"/>
		</g>
		<g>
			<defs>
				<rect id="SVGID_43_" x="-55.115" y="-49.251" width="788.98" height="504.987"/>
			</defs>
			<clipPath id="SVGID_44_">
				<use xlink:href="#SVGID_43_"  style="overflow:visible;"/>
			</clipPath>
			<path style="clip-path:url(#SVGID_44_);" d="M260.349,76.791h1.805v5.314c0,0.84,0.139,1.446,0.416,1.819
				c0.277,0.373,0.725,0.56,1.342,0.56c0.59,0,1.017-0.178,1.28-0.533c0.264-0.355,0.396-0.928,0.396-1.717v-5.443h1.57v5.326
				c0,0.801-0.076,1.411-0.228,1.831c-0.152,0.42-0.43,0.784-0.832,1.093c-0.551,0.426-1.291,0.639-2.221,0.639
				c-0.996,0-1.797-0.227-2.402-0.68c-0.418-0.313-0.71-0.683-0.876-1.11c-0.166-0.428-0.249-1.024-0.249-1.79V76.791z
				 M276.234,85.117c-0.84,0.375-1.842,0.562-3.006,0.562c-1.422,0-2.529-0.4-3.322-1.201c-0.793-0.801-1.189-1.918-1.189-3.352
				c0-1.461,0.399-2.585,1.198-3.372c0.799-0.787,1.938-1.181,3.419-1.181c0.945,0,1.885,0.111,2.818,0.334v1.412
				c-1.059-0.371-1.945-0.557-2.66-0.557c-0.914,0-1.619,0.29-2.115,0.87c-0.496,0.58-0.744,1.403-0.744,2.47
				c0,1.047,0.267,1.863,0.8,2.449c0.533,0.586,1.274,0.879,2.224,0.879c0.852,0,1.711-0.215,2.578-0.645V85.117z M276.855,85.463
				l3.375-8.672h1.805l3.375,8.672h-1.852l-0.902-2.314h-3.586l-0.902,2.314H276.855z M279.515,81.994h2.695l-1.348-3.457
				L279.515,81.994z M287.243,85.463v-1.014h1.734v-6.398l-1.734,0.434v-1.043l3.475-0.867v7.875h1.734v1.014H287.243z"/>
		</g>
	</g>
	<g transform="matrix(1.3333,0,0,1.3333,-58,-18.4896) translate(259.3353,73.8612)">
		<g>
			<defs>
				<rect id="SVGID_45_" x="-314.45" y="-123.113" width="788.98" height="504.987"/>
			</defs>
			<clipPath id="SVGID_46_">
				<use xlink:href="#SVGID_45_"  style="overflow:visible;"/>
			</clipPath>
			<path style="clip-path:url(#SVGID_46_);" d="M8.063,25.389c-0.84,0.375-1.842,0.562-3.006,0.562c-1.422,0-2.529-0.4-3.322-1.201
				c-0.793-0.801-1.19-1.918-1.19-3.352c0-1.461,0.399-2.585,1.198-3.372c0.799-0.787,1.938-1.181,3.419-1.181
				c0.945,0,1.885,0.111,2.818,0.334v1.412c-1.059-0.371-1.945-0.557-2.66-0.557c-0.914,0-1.619,0.29-2.115,0.87
				c-0.496,0.58-0.744,1.403-0.744,2.47c0,1.047,0.267,1.863,0.8,2.449s1.274,0.879,2.224,0.879c0.852,0,1.711-0.215,2.578-0.645
				V25.389z M12.334,25.881c-1.004,0-1.802-0.304-2.394-0.911c-0.592-0.607-0.888-1.425-0.888-2.452
				c0-1.039,0.298-1.859,0.894-2.461c0.596-0.602,1.405-0.902,2.429-0.902c1.027,0,1.839,0.301,2.435,0.902
				c0.596,0.602,0.893,1.418,0.894,2.449c0,1.055-0.299,1.881-0.897,2.479C14.209,25.582,13.385,25.881,12.334,25.881z
				 M12.363,24.797c0.996,0,1.494-0.764,1.494-2.291c0-0.699-0.132-1.252-0.396-1.658c-0.264-0.406-0.626-0.609-1.087-0.609
				c-0.457,0-0.817,0.203-1.081,0.609c-0.264,0.406-0.395,0.963-0.395,1.67c0,0.699,0.131,1.254,0.393,1.664
				C11.553,24.592,11.91,24.797,12.363,24.797z M17.297,25.734v-9.252h1.734v9.252H17.297z M21.199,25.734v-9.252h1.734v9.252
				H21.199z M30.34,25.518c-0.824,0.242-1.605,0.363-2.344,0.363c-1.074,0-1.922-0.305-2.543-0.914
				c-0.621-0.609-0.932-1.441-0.932-2.496c0-0.996,0.284-1.798,0.853-2.405c0.568-0.607,1.319-0.911,2.253-0.911
				c0.941,0,1.629,0.297,2.062,0.891c0.434,0.594,0.65,1.533,0.65,2.818h-3.99c0.117,1.227,0.791,1.84,2.021,1.84
				c0.582,0,1.238-0.135,1.969-0.404V25.518z M26.326,21.885h2.309c0-1.098-0.354-1.646-1.061-1.646
				C26.855,20.238,26.439,20.787,26.326,21.885z M32.18,27.732l0.141-1.26c0.715,0.328,1.396,0.492,2.045,0.492
				c0.641,0,1.104-0.137,1.389-0.41c0.285-0.273,0.428-0.717,0.428-1.33v-0.879c-0.422,0.926-1.119,1.389-2.092,1.389
				c-0.766,0-1.373-0.286-1.822-0.858c-0.449-0.572-0.674-1.347-0.674-2.323c0-1.027,0.252-1.851,0.756-2.47
				c0.504-0.619,1.174-0.929,2.01-0.929c0.656,0,1.264,0.266,1.822,0.797l0.182-0.65h1.559v4.91c0,0.98-0.06,1.688-0.179,2.121
				c-0.119,0.434-0.351,0.803-0.694,1.108c-0.578,0.5-1.393,0.75-2.443,0.75C33.859,28.19,33.051,28.037,32.18,27.732z
				 M36.182,23.338v-2.373c-0.418-0.473-0.855-0.709-1.312-0.709c-0.437,0-0.785,0.199-1.043,0.598
				c-0.258,0.398-0.387,0.934-0.387,1.605c0,1.258,0.404,1.887,1.213,1.887C35.211,24.346,35.721,24.01,36.182,23.338z
				 M43.201,25.043c-0.578,0.559-1.197,0.838-1.857,0.838c-0.563,0-1.02-0.172-1.371-0.516c-0.352-0.344-0.527-0.789-0.527-1.336
				c0-0.711,0.284-1.259,0.853-1.644c0.568-0.385,1.382-0.577,2.44-0.577h0.463v-0.586c0-0.668-0.381-1.002-1.143-1.002
				c-0.676,0-1.359,0.191-2.051,0.574V19.6c0.785-0.297,1.562-0.445,2.332-0.445c1.684,0,2.525,0.67,2.525,2.01v2.848
				c0,0.504,0.162,0.756,0.486,0.756c0.059,0,0.135-0.008,0.229-0.023l0.041,0.973c-0.367,0.109-0.691,0.164-0.973,0.164
				c-0.711,0-1.168-0.279-1.371-0.838H43.201z M43.201,24.111v-1.307h-0.41c-1.121,0-1.682,0.352-1.682,1.055
				c0,0.238,0.081,0.438,0.243,0.601c0.162,0.162,0.362,0.243,0.601,0.243C42.359,24.703,42.775,24.506,43.201,24.111z
				 M47.104,25.734v-6.434h1.664v1.213c0.508-0.906,1.23-1.359,2.168-1.359c0.484,0,0.883,0.119,1.195,0.357
				c0.312,0.238,0.504,0.572,0.574,1.002c0.602-0.906,1.328-1.359,2.18-1.359c1.176,0,1.764,0.648,1.764,1.945v4.635h-1.664v-4.066
				c0-0.762-0.254-1.143-0.762-1.143c-0.52,0-1.025,0.375-1.518,1.125v4.084h-1.664v-4.066c0-0.766-0.256-1.148-0.768-1.148
				c-0.512,0-1.014,0.377-1.506,1.131v4.084H47.104z M63.979,25.518c-0.824,0.242-1.605,0.363-2.344,0.363
				c-1.074,0-1.922-0.305-2.543-0.914c-0.621-0.609-0.932-1.441-0.932-2.496c0-0.996,0.284-1.798,0.853-2.405
				c0.568-0.607,1.319-0.911,2.253-0.911c0.941,0,1.629,0.297,2.062,0.891c0.434,0.594,0.65,1.533,0.65,2.818h-3.99
				c0.117,1.227,0.791,1.84,2.021,1.84c0.582,0,1.238-0.135,1.969-0.404V25.518z M59.965,21.885h2.309
				c0-1.098-0.353-1.646-1.061-1.646C60.494,20.238,60.078,20.787,59.965,21.885z M65.771,25.734v-6.434h1.734v1.213
				c0.566-0.906,1.297-1.359,2.191-1.359c0.574,0,1.027,0.182,1.359,0.545c0.332,0.363,0.498,0.859,0.498,1.488v4.547H69.82v-4.119
				c0-0.73-0.242-1.096-0.726-1.096c-0.551,0-1.08,0.389-1.588,1.166v4.049H65.771z M76.969,25.699
				c-0.414,0.121-0.74,0.182-0.979,0.182c-1.504,0-2.256-0.703-2.256-2.109v-3.387h-0.721v-1.084h0.721v-1.084l1.734-0.199v1.283
				h1.377v1.084h-1.377v3.158c0,0.789,0.322,1.184,0.967,1.184c0.148,0,0.326-0.027,0.533-0.082V25.699z M81.217,25.881
				c-1.004,0-1.802-0.304-2.394-0.911c-0.592-0.607-0.888-1.425-0.888-2.452c0-1.039,0.298-1.859,0.894-2.461
				c0.596-0.602,1.405-0.902,2.429-0.902c1.027,0,1.839,0.301,2.435,0.902c0.596,0.602,0.894,1.418,0.894,2.449
				c0,1.055-0.299,1.881-0.896,2.479C83.092,25.582,82.268,25.881,81.217,25.881z M81.246,24.797c0.996,0,1.494-0.764,1.494-2.291
				c0-0.699-0.132-1.252-0.395-1.658c-0.264-0.406-0.626-0.609-1.087-0.609c-0.457,0-0.817,0.203-1.081,0.609
				c-0.264,0.406-0.396,0.963-0.396,1.67c0,0.699,0.131,1.254,0.393,1.664C80.436,24.592,80.793,24.797,81.246,24.797z
				 M93.287,25.043c-0.578,0.559-1.197,0.838-1.857,0.838c-0.563,0-1.02-0.172-1.371-0.516c-0.352-0.344-0.527-0.789-0.527-1.336
				c0-0.711,0.284-1.259,0.853-1.644c0.568-0.385,1.382-0.577,2.44-0.577h0.463v-0.586c0-0.668-0.381-1.002-1.143-1.002
				c-0.676,0-1.359,0.191-2.051,0.574V19.6c0.785-0.297,1.562-0.445,2.332-0.445c1.684,0,2.525,0.67,2.525,2.01v2.848
				c0,0.504,0.162,0.756,0.486,0.756c0.059,0,0.135-0.008,0.229-0.023l0.041,0.973c-0.367,0.109-0.691,0.164-0.973,0.164
				c-0.711,0-1.168-0.279-1.371-0.838H93.287z M93.287,24.111v-1.307h-0.41c-1.121,0-1.682,0.352-1.682,1.055
				c0,0.238,0.081,0.438,0.243,0.601c0.162,0.162,0.362,0.243,0.601,0.243C92.445,24.703,92.861,24.506,93.287,24.111z
				 M101.238,25.734v-1.213c-0.445,0.906-1.146,1.359-2.103,1.359c-0.773,0-1.381-0.283-1.822-0.85
				c-0.441-0.566-0.662-1.346-0.662-2.338c0-1.078,0.249-1.938,0.747-2.578c0.498-0.641,1.167-0.961,2.007-0.961
				c0.672,0,1.283,0.266,1.834,0.797v-3.469h1.74v9.252H101.238z M101.238,20.982c-0.418-0.469-0.865-0.703-1.342-0.703
				c-0.426,0-0.766,0.205-1.02,0.615c-0.254,0.41-0.381,0.961-0.381,1.652c0,1.316,0.422,1.975,1.266,1.975
				c0.516,0,1.008-0.33,1.477-0.99V20.982z"/>
		</g>
	</g>
	<g transform="matrix(1.3333,0,0,1.3333,-58,-18.4896) translate(259.3353,73.8612)">
		<g>
			<defs>
				<rect id="SVGID_47_" x="-314.45" y="-123.113" width="788.98" height="504.987"/>
			</defs>
			<clipPath id="SVGID_48_">
				<use xlink:href="#SVGID_47_"  style="overflow:visible;"/>
			</clipPath>
			<path style="clip-path:url(#SVGID_48_);" d="M5.063,39.867v-1.213C4.5,39.561,3.77,40.014,2.871,40.014
				c-0.574,0-1.027-0.182-1.359-0.545c-0.332-0.363-0.498-0.859-0.498-1.488v-4.547h1.734v4.119c0,0.73,0.244,1.096,0.733,1.096
				c0.547,0,1.074-0.389,1.582-1.166v-4.049h1.734v6.434H5.063z M8.965,39.867v-6.434h1.734v1.213
				c0.566-0.906,1.297-1.359,2.191-1.359c0.574,0,1.027,0.182,1.359,0.545c0.332,0.363,0.498,0.859,0.498,1.488v4.547h-1.734v-4.119
				c0-0.73-0.242-1.096-0.727-1.096c-0.551,0-1.08,0.389-1.588,1.166v4.049H8.965z M20.801,39.867v-6.434h1.734v6.434H20.801z
				 M20.801,32.35v-1.447h1.734v1.447H20.801z M24.533,39.662v-1.272c0.859,0.359,1.594,0.539,2.203,0.539
				c0.711,0,1.066-0.242,1.066-0.727c0-0.312-0.293-0.586-0.879-0.82l-0.586-0.234c-0.637-0.258-1.092-0.535-1.365-0.832
				c-0.273-0.297-0.41-0.664-0.41-1.102c0-0.609,0.232-1.083,0.697-1.421c0.465-0.338,1.115-0.507,1.951-0.507
				c0.523,0,1.147,0.076,1.869,0.228v1.219c-0.695-0.242-1.271-0.363-1.728-0.363c-0.719,0-1.078,0.223-1.078,0.668
				c0,0.293,0.266,0.541,0.797,0.744l0.504,0.193c0.754,0.285,1.278,0.574,1.573,0.867c0.295,0.293,0.442,0.67,0.442,1.131
				c0,0.605-0.251,1.097-0.753,1.474c-0.502,0.377-1.155,0.565-1.96,0.565C26.104,40.014,25.322,39.896,24.533,39.662z
				 M34.805,39.832c-0.414,0.121-0.74,0.182-0.979,0.182c-1.504,0-2.256-0.703-2.256-2.109v-3.387H30.85v-1.084h0.721V32.35
				l1.734-0.199v1.283h1.377v1.084h-1.377v3.158c0,0.789,0.322,1.184,0.967,1.184c0.148,0,0.326-0.027,0.533-0.082V39.832z
				 M39.504,39.176c-0.578,0.559-1.197,0.838-1.857,0.838c-0.563,0-1.02-0.172-1.371-0.516c-0.352-0.344-0.527-0.789-0.527-1.336
				c0-0.711,0.284-1.259,0.853-1.644c0.568-0.385,1.382-0.577,2.44-0.577h0.463v-0.586c0-0.668-0.381-1.002-1.143-1.002
				c-0.676,0-1.359,0.191-2.051,0.574v-1.195c0.785-0.297,1.563-0.445,2.332-0.445c1.684,0,2.525,0.67,2.525,2.01v2.848
				c0,0.504,0.162,0.756,0.486,0.756c0.059,0,0.135-0.008,0.229-0.023l0.041,0.973c-0.367,0.109-0.691,0.164-0.973,0.164
				c-0.711,0-1.168-0.279-1.371-0.838H39.504z M39.504,38.244v-1.307h-0.41c-1.121,0-1.682,0.352-1.682,1.055
				c0,0.238,0.081,0.438,0.243,0.601c0.162,0.162,0.362,0.243,0.601,0.243C38.662,38.836,39.078,38.639,39.504,38.244z
				 M43.406,39.867v-6.434h1.734v1.213c0.566-0.906,1.297-1.359,2.191-1.359c0.574,0,1.027,0.182,1.359,0.545
				c0.332,0.363,0.498,0.859,0.498,1.488v4.547h-1.734v-4.119c0-0.73-0.242-1.096-0.727-1.096c-0.551,0-1.08,0.389-1.588,1.166
				v4.049H43.406z M50.924,39.867v-1.154l3.598-4.195h-3.434v-1.084h5.484v1.084l-3.598,4.195h3.668v1.154H50.924z M61.529,39.176
				c-0.578,0.559-1.197,0.838-1.857,0.838c-0.563,0-1.02-0.172-1.371-0.516c-0.352-0.344-0.527-0.789-0.527-1.336
				c0-0.711,0.284-1.259,0.853-1.644c0.568-0.385,1.382-0.577,2.44-0.577h0.463v-0.586c0-0.668-0.381-1.002-1.143-1.002
				c-0.676,0-1.359,0.191-2.051,0.574v-1.195c0.785-0.297,1.563-0.445,2.332-0.445c1.684,0,2.525,0.67,2.525,2.01v2.848
				c0,0.504,0.162,0.756,0.486,0.756c0.059,0,0.135-0.008,0.229-0.023l0.041,0.973c-0.367,0.109-0.691,0.164-0.973,0.164
				c-0.711,0-1.168-0.279-1.371-0.838H61.529z M61.529,38.244v-1.307h-0.41c-1.121,0-1.682,0.352-1.682,1.055
				c0,0.238,0.081,0.438,0.243,0.601c0.162,0.162,0.362,0.243,0.601,0.243C60.687,38.836,61.104,38.639,61.529,38.244z
				 M73.436,39.867v-1.213c-0.445,0.906-1.146,1.359-2.104,1.359c-0.773,0-1.381-0.283-1.822-0.85
				c-0.441-0.566-0.662-1.346-0.662-2.338c0-1.078,0.249-1.938,0.747-2.578c0.498-0.641,1.167-0.961,2.007-0.961
				c0.672,0,1.283,0.266,1.834,0.797v-3.469h1.74v9.252H73.436z M73.436,35.115c-0.418-0.469-0.865-0.703-1.342-0.703
				c-0.426,0-0.766,0.205-1.02,0.615c-0.254,0.41-0.381,0.961-0.381,1.652c0,1.316,0.422,1.975,1.266,1.975
				c0.516,0,1.008-0.33,1.477-0.99V35.115z M77.338,39.867v-6.434h1.734v6.434H77.338z M77.338,32.35v-1.447h1.734v1.447H77.338z"/>
		</g>
	</g>
	<g transform="matrix(1.3333,0,0,1.3333,-58,-18.4896) translate(259.3353,73.8612)">
		<g>
			<defs>
				<rect id="SVGID_49_" x="-314.45" y="-123.113" width="788.98" height="504.987"/>
			</defs>
			<clipPath id="SVGID_50_">
				<use xlink:href="#SVGID_49_"  style="overflow:visible;"/>
			</clipPath>
			<path style="clip-path:url(#SVGID_50_);" d="M1.084,54v-8.672h1.588l4.019,5.924v-5.924h1.447V54H6.522l-3.99-5.924V54H1.084z
				 M13.008,54.146c-1.004,0-1.802-0.304-2.394-0.911c-0.592-0.607-0.888-1.425-0.888-2.452c0-1.039,0.298-1.859,0.894-2.461
				c0.596-0.602,1.405-0.902,2.429-0.902c1.027,0,1.839,0.301,2.435,0.902c0.596,0.602,0.894,1.418,0.894,2.449
				c0,1.055-0.299,1.881-0.896,2.479C14.883,53.848,14.059,54.146,13.008,54.146z M13.037,53.062c0.996,0,1.494-0.764,1.494-2.291
				c0-0.699-0.132-1.252-0.396-1.658c-0.264-0.406-0.626-0.609-1.087-0.609c-0.457,0-0.817,0.203-1.081,0.609
				c-0.264,0.406-0.396,0.963-0.396,1.67c0,0.699,0.131,1.254,0.392,1.664C12.227,52.857,12.584,53.062,13.037,53.062z M17.971,54
				v-6.434h1.734v1.213c0.449-0.906,1.133-1.359,2.051-1.359c0.109,0,0.217,0.012,0.322,0.035v1.547
				c-0.246-0.09-0.475-0.135-0.686-0.135c-0.691,0-1.254,0.35-1.688,1.049V54H17.971z M23.426,54v-6.434h1.734v1.213
				c0.449-0.906,1.133-1.359,2.051-1.359c0.109,0,0.217,0.012,0.322,0.035v1.547c-0.246-0.09-0.475-0.135-0.685-0.135
				c-0.691,0-1.254,0.35-1.688,1.049V54H23.426z M28.881,54v-6.434h1.734V54H28.881z M28.881,46.482v-1.447h1.734v1.447H28.881z
				 M32.613,53.795v-1.271c0.859,0.359,1.594,0.539,2.203,0.539c0.711,0,1.066-0.242,1.066-0.727c0-0.312-0.293-0.586-0.879-0.82
				l-0.586-0.234c-0.637-0.258-1.092-0.535-1.365-0.832c-0.273-0.297-0.41-0.664-0.41-1.102c0-0.609,0.232-1.083,0.697-1.421
				c0.465-0.338,1.115-0.507,1.951-0.507c0.523,0,1.147,0.076,1.869,0.229v1.219c-0.695-0.242-1.272-0.363-1.729-0.363
				c-0.719,0-1.078,0.223-1.078,0.668c0,0.293,0.266,0.541,0.797,0.744l0.504,0.193c0.754,0.285,1.278,0.574,1.573,0.867
				c0.295,0.293,0.442,0.67,0.442,1.131c0,0.605-0.251,1.097-0.753,1.474c-0.502,0.377-1.155,0.565-1.96,0.565
				C34.184,54.146,33.402,54.029,32.613,53.795z"/>
		</g>
	</g>
	<g transform="matrix(1.3333,0,0,1.3333,-58,-18.4896) translate(5,5)">
		<g>
			<defs>
				<rect id="SVGID_51_" x="-60.115" y="-54.251" width="788.98" height="504.987"/>
			</defs>
			<clipPath id="SVGID_52_">
				<use xlink:href="#SVGID_51_"  style="overflow:visible;"/>
			</clipPath>
			<ellipse style="clip-path:url(#SVGID_52_);fill:#C0C0C0;fill-opacity:0.502;" cx="330.5" cy="225.5" rx="96.5" ry="31"/>
		</g>
		<g>
			<defs>
				<rect id="SVGID_53_" x="-60.115" y="-54.251" width="788.98" height="504.987"/>
			</defs>
			<clipPath id="SVGID_54_">
				<use xlink:href="#SVGID_53_"  style="overflow:visible;"/>
			</clipPath>
			
				<ellipse style="clip-path:url(#SVGID_54_);fill:none;stroke:#C0C0C0;stroke-width:2;stroke-linecap:square;stroke-miterlimit:10;stroke-opacity:0.502;" cx="330.5" cy="225.5" rx="96.5" ry="31"/>
		</g>
	</g>
	<g transform="matrix(1.3333,0,0,1.3333,-58,-18.4896)">
		<g>
			<defs>
				<rect id="SVGID_55_" x="-55.115" y="-49.251" width="788.98" height="504.987"/>
			</defs>
			<clipPath id="SVGID_56_">
				<use xlink:href="#SVGID_55_"  style="overflow:visible;"/>
			</clipPath>
			
				<linearGradient id="SVGID_57_" gradientUnits="userSpaceOnUse" x1="241.8948" y1="292.1534" x2="434.8948" y2="229.1534" gradientTransform="matrix(1.3333 0 0 -1.3333 -88.5183 583.5281)">
				<stop  offset="0" style="stop-color:#FFFFFF"/>
				<stop  offset="1" style="stop-color:#FFFFCC"/>
			</linearGradient>
			<ellipse style="clip-path:url(#SVGID_56_);fill:url(#SVGID_57_);" cx="330.5" cy="225.5" rx="96.5" ry="31"/>
		</g>
		<g>
			<defs>
				<rect id="SVGID_58_" x="-55.115" y="-49.251" width="788.98" height="504.987"/>
			</defs>
			<clipPath id="SVGID_59_">
				<use xlink:href="#SVGID_58_"  style="overflow:visible;"/>
			</clipPath>
			
				<ellipse style="clip-path:url(#SVGID_59_);fill:none;stroke:#000000;stroke-width:2;stroke-linecap:square;stroke-miterlimit:10;" cx="330.5" cy="225.5" rx="96.5" ry="31"/>
		</g>
		<g>
			<defs>
				<rect id="SVGID_60_" x="-55.115" y="-49.251" width="788.98" height="504.987"/>
			</defs>
			<clipPath id="SVGID_61_">
				<use xlink:href="#SVGID_60_"  style="overflow:visible;"/>
			</clipPath>
			<path style="clip-path:url(#SVGID_61_);" d="M263.278,214.297h1.805v5.314c0,0.84,0.139,1.446,0.416,1.819
				c0.277,0.373,0.725,0.56,1.342,0.56c0.59,0,1.017-0.178,1.28-0.533c0.264-0.355,0.396-0.928,0.396-1.717v-5.443h1.57v5.326
				c0,0.801-0.076,1.411-0.228,1.831c-0.152,0.42-0.43,0.784-0.832,1.093c-0.551,0.426-1.291,0.639-2.221,0.639
				c-0.996,0-1.797-0.227-2.402-0.68c-0.418-0.313-0.71-0.683-0.876-1.11c-0.166-0.428-0.249-1.024-0.249-1.79V214.297z
				 M279.163,222.623c-0.84,0.375-1.842,0.562-3.006,0.562c-1.422,0-2.529-0.4-3.322-1.201c-0.793-0.801-1.189-1.918-1.189-3.352
				c0-1.461,0.399-2.585,1.198-3.372c0.799-0.787,1.938-1.181,3.419-1.181c0.945,0,1.885,0.111,2.818,0.334v1.412
				c-1.059-0.371-1.945-0.557-2.66-0.557c-0.914,0-1.619,0.29-2.115,0.87c-0.496,0.58-0.744,1.403-0.744,2.47
				c0,1.047,0.267,1.863,0.8,2.449c0.533,0.586,1.274,0.879,2.224,0.879c0.852,0,1.711-0.215,2.578-0.645V222.623z M279.784,222.969
				l3.375-8.672h1.805l3.375,8.672h-1.852l-0.902-2.314h-3.586l-0.902,2.314H279.784z M282.444,219.5h2.695l-1.348-3.457
				L282.444,219.5z M289.346,222.969v-1.371l0.094-0.129c0.465-0.621,0.941-1.145,1.43-1.57l0.709-0.627
				c1.168-1.031,1.752-1.936,1.752-2.713c0-0.906-0.516-1.359-1.547-1.359c-0.637,0-1.375,0.215-2.215,0.645v-1.271
				c0.883-0.328,1.736-0.492,2.561-0.492c0.922,0,1.66,0.218,2.215,0.653c0.555,0.436,0.832,1.019,0.832,1.749
				c0,0.504-0.135,0.963-0.404,1.377c-0.27,0.414-0.744,0.895-1.424,1.441l-0.586,0.469c-0.816,0.656-1.301,1.266-1.453,1.828h3.832
				v1.371H289.346z M303.708,222.969l-3.205-8.672h1.928l2.484,6.709l2.402-6.709h1.301l-3.1,8.672H303.708z M309.825,222.969
				v-6.434h1.734v6.434H309.825z M309.825,215.451v-1.447h1.734v1.447H309.825z M313.557,222.764v-1.271
				c0.859,0.359,1.594,0.539,2.203,0.539c0.711,0,1.066-0.242,1.066-0.727c0-0.312-0.293-0.586-0.879-0.82l-0.586-0.234
				c-0.637-0.258-1.092-0.535-1.365-0.832c-0.273-0.297-0.41-0.664-0.41-1.102c0-0.609,0.232-1.083,0.697-1.421
				c0.465-0.338,1.115-0.507,1.951-0.507c0.523,0,1.146,0.076,1.869,0.229v1.219c-0.695-0.242-1.271-0.363-1.729-0.363
				c-0.719,0-1.078,0.223-1.078,0.668c0,0.293,0.266,0.541,0.797,0.744l0.504,0.193c0.754,0.285,1.278,0.574,1.573,0.867
				c0.295,0.293,0.442,0.67,0.442,1.131c0,0.605-0.251,1.097-0.753,1.474c-0.502,0.377-1.155,0.565-1.96,0.565
				C315.128,223.115,314.346,222.998,313.557,222.764z M324.491,222.969v-1.213c-0.563,0.906-1.293,1.359-2.191,1.359
				c-0.574,0-1.027-0.182-1.359-0.545c-0.332-0.363-0.498-0.859-0.498-1.488v-4.547h1.734v4.119c0,0.73,0.244,1.096,0.732,1.096
				c0.547,0,1.074-0.389,1.582-1.166v-4.049h1.734v6.434H324.491z M331.545,222.277c-0.578,0.559-1.197,0.838-1.857,0.838
				c-0.562,0-1.02-0.172-1.371-0.516c-0.352-0.344-0.527-0.789-0.527-1.336c0-0.711,0.284-1.259,0.853-1.644
				c0.568-0.385,1.382-0.577,2.44-0.577h0.463v-0.586c0-0.668-0.381-1.002-1.142-1.002c-0.676,0-1.359,0.191-2.051,0.574v-1.195
				c0.785-0.297,1.562-0.445,2.332-0.445c1.684,0,2.525,0.67,2.525,2.01v2.848c0,0.504,0.162,0.756,0.486,0.756
				c0.059,0,0.135-0.008,0.229-0.023l0.041,0.973c-0.367,0.109-0.691,0.164-0.973,0.164c-0.711,0-1.168-0.279-1.371-0.838H331.545z
				 M331.545,221.346v-1.307h-0.41c-1.121,0-1.682,0.352-1.682,1.055c0,0.238,0.081,0.438,0.243,0.601
				c0.162,0.162,0.362,0.243,0.601,0.243C330.704,221.938,331.12,221.74,331.545,221.346z M335.448,222.969v-9.252h1.734v9.252
				H335.448z M339.35,222.969v-6.434h1.734v6.434H339.35z M339.35,215.451v-1.447h1.734v1.447H339.35z M342.889,222.969v-1.154
				l3.598-4.195h-3.434v-1.084h5.484v1.084l-3.598,4.195h3.668v1.154H342.889z M349.979,222.969v-1.154l3.598-4.195h-3.434v-1.084
				h5.484v1.084l-3.598,4.195h3.668v1.154H349.979z M360.584,222.277c-0.578,0.559-1.197,0.838-1.857,0.838
				c-0.563,0-1.02-0.172-1.371-0.516c-0.352-0.344-0.527-0.789-0.527-1.336c0-0.711,0.284-1.259,0.853-1.644
				c0.568-0.385,1.382-0.577,2.44-0.577h0.463v-0.586c0-0.668-0.381-1.002-1.143-1.002c-0.676,0-1.359,0.191-2.051,0.574v-1.195
				c0.785-0.297,1.562-0.445,2.332-0.445c1.684,0,2.525,0.67,2.525,2.01v2.848c0,0.504,0.162,0.756,0.486,0.756
				c0.059,0,0.135-0.008,0.228-0.023l0.041,0.973c-0.367,0.109-0.691,0.164-0.973,0.164c-0.711,0-1.168-0.279-1.371-0.838H360.584z
				 M360.584,221.346v-1.307h-0.41c-1.121,0-1.682,0.352-1.682,1.055c0,0.238,0.081,0.438,0.243,0.601
				c0.162,0.162,0.362,0.243,0.601,0.243C359.743,221.938,360.159,221.74,360.584,221.346z M364.124,222.969v-1.154l3.598-4.195
				h-3.434v-1.084h5.484v1.084l-3.598,4.195h3.668v1.154H364.124z M371.577,222.969v-6.434h1.734v6.434H371.577z M371.577,215.451
				v-1.447h1.734v1.447H371.577z M378.18,223.115c-1.004,0-1.802-0.304-2.393-0.911s-0.888-1.425-0.888-2.452
				c0-1.039,0.298-1.859,0.893-2.461c0.596-0.602,1.405-0.902,2.429-0.902c1.027,0,1.839,0.301,2.435,0.902
				c0.596,0.602,0.894,1.418,0.894,2.449c0,1.055-0.299,1.881-0.896,2.479C380.055,222.816,379.231,223.115,378.18,223.115z
				 M378.209,222.031c0.996,0,1.494-0.764,1.494-2.291c0-0.699-0.132-1.252-0.396-1.658c-0.264-0.406-0.626-0.609-1.087-0.609
				c-0.457,0-0.817,0.203-1.081,0.609c-0.264,0.406-0.396,0.963-0.396,1.67c0,0.699,0.131,1.254,0.392,1.664
				C377.399,221.826,377.756,222.031,378.209,222.031z M383.143,222.969v-6.434h1.734v1.213c0.566-0.906,1.297-1.359,2.191-1.359
				c0.574,0,1.027,0.182,1.359,0.545c0.332,0.363,0.498,0.859,0.498,1.488v4.547h-1.734v-4.119c0-0.73-0.242-1.096-0.727-1.096
				c-0.551,0-1.08,0.389-1.588,1.166v4.049H383.143z M396.262,222.752c-0.824,0.242-1.605,0.363-2.344,0.363
				c-1.074,0-1.922-0.305-2.543-0.914c-0.621-0.609-0.932-1.441-0.932-2.496c0-0.996,0.284-1.798,0.853-2.405
				c0.568-0.607,1.319-0.911,2.253-0.911c0.941,0,1.629,0.297,2.062,0.891c0.434,0.594,0.65,1.533,0.65,2.818h-3.99
				c0.117,1.227,0.791,1.84,2.022,1.84c0.582,0,1.238-0.135,1.969-0.404V222.752z M392.249,219.119h2.309
				c0-1.098-0.354-1.646-1.061-1.646C392.778,217.473,392.362,218.022,392.249,219.119z"/>
		</g>
	</g>
	<g transform="matrix(1.3333,0,0,1.3333,-58,-18.4896) translate(262.2642,211.3672)">
		<g>
			<defs>
				<rect id="SVGID_62_" x="-317.379" y="-260.619" width="788.98" height="504.987"/>
			</defs>
			<clipPath id="SVGID_63_">
				<use xlink:href="#SVGID_62_"  style="overflow:visible;"/>
			</clipPath>
			<path style="clip-path:url(#SVGID_63_);" d="M6.322,25.518c-0.824,0.242-1.606,0.363-2.344,0.363
				c-1.074,0-1.922-0.305-2.543-0.914c-0.621-0.609-0.932-1.441-0.932-2.496c0-0.996,0.284-1.798,0.852-2.405
				c0.568-0.607,1.319-0.911,2.253-0.911c0.941,0,1.629,0.297,2.062,0.891c0.434,0.594,0.65,1.533,0.65,2.818h-3.99
				c0.117,1.227,0.791,1.84,2.021,1.84c0.582,0,1.238-0.135,1.969-0.404V25.518z M2.309,21.885h2.309
				c0-1.098-0.354-1.646-1.061-1.646C2.838,20.238,2.422,20.787,2.309,21.885z M8.115,25.734v-9.252H9.85v9.252H8.115z
				 M17.256,25.518c-0.824,0.242-1.606,0.363-2.344,0.363c-1.074,0-1.922-0.305-2.543-0.914c-0.621-0.609-0.932-1.441-0.932-2.496
				c0-0.996,0.284-1.798,0.852-2.405c0.568-0.607,1.319-0.911,2.253-0.911c0.941,0,1.629,0.297,2.062,0.891
				c0.434,0.594,0.65,1.533,0.65,2.818h-3.99c0.117,1.227,0.791,1.84,2.021,1.84c0.582,0,1.238-0.135,1.969-0.404V25.518z
				 M13.242,21.885h2.309c0-1.098-0.354-1.646-1.061-1.646C13.771,20.238,13.355,20.787,13.242,21.885z M19.049,25.734v-6.434h1.734
				v1.213c0.566-0.906,1.297-1.359,2.191-1.359c0.574,0,1.027,0.182,1.359,0.545c0.332,0.363,0.498,0.859,0.498,1.488v4.547h-1.734
				v-4.119c0-0.73-0.242-1.096-0.727-1.096c-0.551,0-1.08,0.389-1.588,1.166v4.049H19.049z M31.676,25.594
				c-0.719,0.191-1.385,0.287-1.998,0.287c-1.027,0-1.839-0.302-2.434-0.905c-0.596-0.604-0.894-1.425-0.894-2.464
				c0-1.051,0.307-1.873,0.92-2.467c0.613-0.594,1.461-0.891,2.543-0.891c0.523,0,1.127,0.084,1.81,0.252v1.254
				c-0.711-0.23-1.279-0.346-1.705-0.346c-0.52,0-0.938,0.199-1.254,0.598c-0.316,0.398-0.475,0.928-0.475,1.588
				c0,0.676,0.171,1.217,0.513,1.623c0.342,0.406,0.798,0.609,1.368,0.609c0.52,0,1.055-0.113,1.606-0.34V25.594z M36.018,25.881
				c-1.004,0-1.802-0.304-2.394-0.911c-0.592-0.607-0.888-1.425-0.888-2.452c0-1.039,0.298-1.859,0.894-2.461
				c0.596-0.602,1.405-0.902,2.429-0.902c1.027,0,1.839,0.301,2.435,0.902c0.596,0.602,0.894,1.418,0.894,2.449
				c0,1.055-0.299,1.881-0.896,2.479C37.893,25.582,37.068,25.881,36.018,25.881z M36.047,24.797c0.996,0,1.494-0.764,1.494-2.291
				c0-0.699-0.132-1.252-0.396-1.658c-0.264-0.406-0.626-0.609-1.087-0.609c-0.457,0-0.817,0.203-1.081,0.609
				c-0.264,0.406-0.396,0.963-0.396,1.67c0,0.699,0.131,1.254,0.393,1.664C35.236,24.592,35.594,24.797,36.047,24.797z
				 M44.982,27.732l0.141-1.26c0.715,0.328,1.397,0.492,2.045,0.492c0.641,0,1.103-0.137,1.389-0.41
				c0.285-0.273,0.428-0.717,0.428-1.33v-0.879c-0.422,0.926-1.119,1.389-2.092,1.389c-0.766,0-1.373-0.286-1.822-0.858
				c-0.449-0.572-0.674-1.347-0.674-2.323c0-1.027,0.252-1.851,0.756-2.47c0.504-0.619,1.174-0.929,2.01-0.929
				c0.656,0,1.264,0.266,1.822,0.797l0.182-0.65h1.559v4.91c0,0.98-0.06,1.688-0.179,2.121c-0.119,0.434-0.351,0.803-0.694,1.108
				c-0.578,0.5-1.393,0.75-2.443,0.75C46.662,28.19,45.854,28.037,44.982,27.732z M48.984,23.338v-2.373
				c-0.418-0.473-0.855-0.709-1.312-0.709c-0.438,0-0.785,0.199-1.043,0.598c-0.258,0.398-0.387,0.934-0.387,1.605
				c0,1.258,0.404,1.887,1.213,1.887C48.014,24.346,48.523,24.01,48.984,23.338z M52.852,25.734v-6.434h1.734v1.213
				c0.449-0.906,1.133-1.359,2.051-1.359c0.109,0,0.217,0.012,0.322,0.035v1.547c-0.246-0.09-0.475-0.135-0.686-0.135
				c-0.691,0-1.254,0.35-1.688,1.049v4.084H52.852z M61.459,25.043c-0.578,0.559-1.197,0.838-1.857,0.838
				c-0.563,0-1.02-0.172-1.371-0.516c-0.352-0.344-0.527-0.789-0.527-1.336c0-0.711,0.284-1.259,0.853-1.644
				c0.568-0.385,1.382-0.577,2.44-0.577h0.463v-0.586c0-0.668-0.381-1.002-1.143-1.002c-0.676,0-1.359,0.191-2.051,0.574V19.6
				c0.785-0.297,1.563-0.445,2.332-0.445c1.684,0,2.525,0.67,2.525,2.01v2.848c0,0.504,0.162,0.756,0.486,0.756
				c0.059,0,0.135-0.008,0.228-0.023l0.041,0.973c-0.367,0.109-0.691,0.164-0.973,0.164c-0.711,0-1.168-0.279-1.371-0.838H61.459z
				 M61.459,24.111v-1.307h-0.41c-1.121,0-1.682,0.352-1.682,1.055c0,0.238,0.081,0.438,0.243,0.601
				c0.162,0.162,0.362,0.243,0.6,0.243C60.617,24.703,61.033,24.506,61.459,24.111z M65.543,25.734v-5.35h-0.885v-1.084h0.885
				v-0.463c0-1.668,0.791-2.502,2.373-2.502c0.512,0,1.039,0.074,1.582,0.223v1.172c-0.492-0.207-0.934-0.311-1.324-0.311
				c-0.598,0-0.896,0.451-0.896,1.353v0.527h1.629v1.084h-1.629v5.35H65.543z M70.336,25.734v-6.434h1.734v6.434H70.336z
				 M70.336,18.217V16.77h1.734v1.447H70.336z M78.984,25.594c-0.719,0.191-1.385,0.287-1.998,0.287
				c-1.027,0-1.839-0.302-2.434-0.905c-0.596-0.604-0.894-1.425-0.894-2.464c0-1.051,0.307-1.873,0.92-2.467
				c0.613-0.594,1.461-0.891,2.543-0.891c0.523,0,1.127,0.084,1.811,0.252v1.254c-0.711-0.23-1.279-0.346-1.705-0.346
				c-0.52,0-0.938,0.199-1.254,0.598c-0.316,0.398-0.475,0.928-0.475,1.588c0,0.676,0.171,1.217,0.513,1.623
				c0.342,0.406,0.798,0.609,1.368,0.609c0.52,0,1.055-0.113,1.605-0.34V25.594z M80.625,25.734v-6.434h1.734v6.434H80.625z
				 M80.625,18.217V16.77h1.734v1.447H80.625z"/>
		</g>
	</g>
	<g transform="matrix(1.3333,0,0,1.3333,-58,-18.4896) translate(5,5)">
		<g>
			<defs>
				<rect id="SVGID_64_" x="-60.115" y="-54.251" width="788.98" height="504.987"/>
			</defs>
			<clipPath id="SVGID_65_">
				<use xlink:href="#SVGID_64_"  style="overflow:visible;"/>
			</clipPath>
			<ellipse style="clip-path:url(#SVGID_65_);fill:#C0C0C0;fill-opacity:0.502;" cx="330.5" cy="317.5" rx="96.5" ry="31"/>
		</g>
		<g>
			<defs>
				<rect id="SVGID_66_" x="-60.115" y="-54.251" width="788.98" height="504.987"/>
			</defs>
			<clipPath id="SVGID_67_">
				<use xlink:href="#SVGID_66_"  style="overflow:visible;"/>
			</clipPath>
			
				<ellipse style="clip-path:url(#SVGID_67_);fill:none;stroke:#C0C0C0;stroke-width:2;stroke-linecap:square;stroke-miterlimit:10;stroke-opacity:0.502;" cx="330.5" cy="317.5" rx="96.5" ry="31"/>
		</g>
	</g>
	<g transform="matrix(1.3333,0,0,1.3333,-58,-18.4896)">
		<g>
			<defs>
				<rect id="SVGID_68_" x="-55.115" y="-49.251" width="788.98" height="504.987"/>
			</defs>
			<clipPath id="SVGID_69_">
				<use xlink:href="#SVGID_68_"  style="overflow:visible;"/>
			</clipPath>
			
				<linearGradient id="SVGID_70_" gradientUnits="userSpaceOnUse" x1="241.8948" y1="223.1517" x2="434.8948" y2="160.1517" gradientTransform="matrix(1.3333 0 0 -1.3333 -88.5183 583.5281)">
				<stop  offset="0" style="stop-color:#FFFFFF"/>
				<stop  offset="1" style="stop-color:#FFFFCC"/>
			</linearGradient>
			<ellipse style="clip-path:url(#SVGID_69_);fill:url(#SVGID_70_);" cx="330.5" cy="317.5" rx="96.5" ry="31"/>
		</g>
		<g>
			<defs>
				<rect id="SVGID_71_" x="-55.115" y="-49.251" width="788.98" height="504.987"/>
			</defs>
			<clipPath id="SVGID_72_">
				<use xlink:href="#SVGID_71_"  style="overflow:visible;"/>
			</clipPath>
			
				<ellipse style="clip-path:url(#SVGID_72_);fill:none;stroke:#000000;stroke-width:2;stroke-linecap:square;stroke-miterlimit:10;" cx="330.5" cy="317.5" rx="96.5" ry="31"/>
		</g>
		<g>
			<defs>
				<rect id="SVGID_73_" x="-55.115" y="-49.252" width="788.98" height="504.987"/>
			</defs>
			<clipPath id="SVGID_74_">
				<use xlink:href="#SVGID_73_"  style="overflow:visible;"/>
			</clipPath>
			<path style="clip-path:url(#SVGID_74_);" d="M263.278,306.297h1.805v5.314c0,0.84,0.139,1.446,0.416,1.819
				c0.277,0.373,0.725,0.559,1.342,0.559c0.59,0,1.017-0.178,1.28-0.533c0.264-0.355,0.396-0.928,0.396-1.717v-5.443h1.57v5.326
				c0,0.801-0.076,1.411-0.228,1.831c-0.152,0.42-0.43,0.784-0.832,1.093c-0.551,0.426-1.291,0.639-2.221,0.639
				c-0.996,0-1.797-0.227-2.402-0.68c-0.418-0.313-0.71-0.683-0.876-1.11c-0.166-0.428-0.249-1.024-0.249-1.79V306.297z
				 M279.163,314.623c-0.84,0.375-1.842,0.562-3.006,0.562c-1.422,0-2.529-0.4-3.322-1.201c-0.793-0.801-1.189-1.918-1.189-3.352
				c0-1.461,0.399-2.585,1.198-3.372c0.799-0.787,1.938-1.181,3.419-1.181c0.945,0,1.885,0.111,2.818,0.334v1.412
				c-1.059-0.371-1.945-0.557-2.66-0.557c-0.914,0-1.619,0.29-2.115,0.87c-0.496,0.58-0.744,1.403-0.744,2.47
				c0,1.047,0.267,1.863,0.8,2.449s1.274,0.879,2.224,0.879c0.852,0,1.711-0.215,2.578-0.645V314.623z M279.784,314.969l3.375-8.672
				h1.805l3.375,8.672h-1.852l-0.902-2.314h-3.586l-0.902,2.314H279.784z M282.444,311.5h2.695l-1.348-3.457L282.444,311.5z
				 M289.668,314.904v-1.301c0.859,0.332,1.568,0.498,2.127,0.498c0.52,0,0.937-0.133,1.251-0.398
				c0.314-0.266,0.472-0.619,0.472-1.061c0-1.145-0.838-1.717-2.514-1.717h-0.533v-1.037l0.451-0.006
				c1.57,0,2.355-0.514,2.355-1.541c0-0.785-0.484-1.178-1.453-1.178c-0.637,0-1.316,0.162-2.039,0.486v-1.184
				c0.762-0.262,1.564-0.393,2.408-0.393c0.895,0,1.595,0.184,2.101,0.551c0.506,0.367,0.759,0.875,0.759,1.523
				c0,1.023-0.639,1.746-1.916,2.168c1.461,0.336,2.191,1.117,2.191,2.344c0,0.777-0.293,1.393-0.879,1.846
				c-0.586,0.453-1.383,0.68-2.391,0.68C291.204,315.186,290.407,315.092,289.668,314.904z M303.708,314.969l-3.205-8.672h1.928
				l2.484,6.709l2.402-6.709h1.301l-3.1,8.672H303.708z M309.825,314.969v-6.434h1.734v6.434H309.825z M309.825,307.451v-1.447
				h1.734v1.447H309.825z M313.557,314.764v-1.271c0.859,0.359,1.594,0.539,2.203,0.539c0.711,0,1.066-0.242,1.066-0.727
				c0-0.312-0.293-0.586-0.879-0.82l-0.586-0.234c-0.637-0.258-1.092-0.535-1.365-0.832c-0.273-0.297-0.41-0.664-0.41-1.102
				c0-0.609,0.232-1.083,0.697-1.421c0.465-0.338,1.115-0.507,1.951-0.507c0.523,0,1.146,0.076,1.869,0.229v1.219
				c-0.695-0.242-1.271-0.363-1.729-0.363c-0.719,0-1.078,0.223-1.078,0.668c0,0.293,0.266,0.541,0.797,0.744l0.504,0.193
				c0.754,0.285,1.278,0.574,1.573,0.867c0.295,0.293,0.442,0.67,0.442,1.131c0,0.605-0.251,1.097-0.753,1.474
				c-0.502,0.377-1.155,0.565-1.96,0.565C315.128,315.115,314.346,314.998,313.557,314.764z M324.491,314.969v-1.213
				c-0.563,0.906-1.293,1.359-2.191,1.359c-0.574,0-1.027-0.182-1.359-0.545c-0.332-0.363-0.498-0.859-0.498-1.488v-4.547h1.734
				v4.119c0,0.73,0.244,1.096,0.732,1.096c0.547,0,1.074-0.389,1.582-1.166v-4.049h1.734v6.434H324.491z M331.545,314.277
				c-0.578,0.559-1.197,0.838-1.857,0.838c-0.562,0-1.02-0.172-1.371-0.516c-0.352-0.344-0.527-0.789-0.527-1.336
				c0-0.711,0.284-1.259,0.853-1.644c0.568-0.385,1.382-0.577,2.44-0.577h0.463v-0.586c0-0.668-0.381-1.002-1.142-1.002
				c-0.676,0-1.359,0.191-2.051,0.574v-1.195c0.785-0.297,1.562-0.445,2.332-0.445c1.684,0,2.525,0.67,2.525,2.01v2.848
				c0,0.504,0.162,0.756,0.486,0.756c0.059,0,0.135-0.008,0.229-0.023l0.041,0.973c-0.367,0.109-0.691,0.164-0.973,0.164
				c-0.711,0-1.168-0.279-1.371-0.838H331.545z M331.545,313.346v-1.307h-0.41c-1.121,0-1.682,0.352-1.682,1.055
				c0,0.238,0.081,0.438,0.243,0.6c0.162,0.162,0.362,0.243,0.601,0.243C330.704,313.938,331.12,313.74,331.545,313.346z
				 M335.448,314.969v-9.252h1.734v9.252H335.448z M339.35,314.969v-6.434h1.734v6.434H339.35z M339.35,307.451v-1.447h1.734v1.447
				H339.35z M342.889,314.969v-1.154l3.598-4.195h-3.434v-1.084h5.484v1.084l-3.598,4.195h3.668v1.154H342.889z M349.979,314.969
				v-1.154l3.598-4.195h-3.434v-1.084h5.484v1.084l-3.598,4.195h3.668v1.154H349.979z M360.584,314.277
				c-0.578,0.559-1.197,0.838-1.857,0.838c-0.563,0-1.02-0.172-1.371-0.516c-0.352-0.344-0.527-0.789-0.527-1.336
				c0-0.711,0.284-1.259,0.853-1.644c0.568-0.385,1.382-0.577,2.44-0.577h0.463v-0.586c0-0.668-0.381-1.002-1.143-1.002
				c-0.676,0-1.359,0.191-2.051,0.574v-1.195c0.785-0.297,1.562-0.445,2.332-0.445c1.684,0,2.525,0.67,2.525,2.01v2.848
				c0,0.504,0.162,0.756,0.486,0.756c0.059,0,0.135-0.008,0.228-0.023l0.041,0.973c-0.367,0.109-0.691,0.164-0.973,0.164
				c-0.711,0-1.168-0.279-1.371-0.838H360.584z M360.584,313.346v-1.307h-0.41c-1.121,0-1.682,0.352-1.682,1.055
				c0,0.238,0.081,0.438,0.243,0.6c0.162,0.162,0.362,0.243,0.601,0.243C359.743,313.938,360.159,313.74,360.584,313.346z
				 M364.124,314.969v-1.154l3.598-4.195h-3.434v-1.084h5.484v1.084l-3.598,4.195h3.668v1.154H364.124z M371.577,314.969v-6.434
				h1.734v6.434H371.577z M371.577,307.451v-1.447h1.734v1.447H371.577z M378.18,315.115c-1.004,0-1.802-0.304-2.393-0.911
				c-0.592-0.607-0.888-1.425-0.888-2.452c0-1.039,0.298-1.859,0.893-2.461c0.596-0.602,1.405-0.902,2.429-0.902
				c1.027,0,1.839,0.301,2.435,0.902c0.596,0.602,0.894,1.418,0.894,2.449c0,1.055-0.299,1.881-0.896,2.479
				C380.055,314.816,379.231,315.115,378.18,315.115z M378.209,314.031c0.996,0,1.494-0.764,1.494-2.291
				c0-0.699-0.132-1.252-0.396-1.658c-0.264-0.406-0.626-0.609-1.087-0.609c-0.457,0-0.817,0.203-1.081,0.609
				c-0.264,0.406-0.396,0.963-0.396,1.67c0,0.699,0.131,1.254,0.392,1.664C377.399,313.826,377.756,314.031,378.209,314.031z
				 M383.143,314.969v-6.434h1.734v1.213c0.566-0.906,1.297-1.359,2.191-1.359c0.574,0,1.027,0.182,1.359,0.545
				c0.332,0.363,0.498,0.859,0.498,1.488v4.547h-1.734v-4.119c0-0.73-0.242-1.096-0.727-1.096c-0.551,0-1.08,0.389-1.588,1.166
				v4.049H383.143z M396.262,314.752c-0.824,0.242-1.605,0.363-2.344,0.363c-1.074,0-1.922-0.305-2.543-0.914
				c-0.621-0.609-0.932-1.441-0.932-2.496c0-0.996,0.284-1.798,0.853-2.405c0.568-0.607,1.319-0.911,2.253-0.911
				c0.941,0,1.629,0.297,2.062,0.891c0.434,0.594,0.65,1.533,0.65,2.818h-3.99c0.117,1.227,0.791,1.84,2.022,1.84
				c0.582,0,1.238-0.135,1.969-0.404V314.752z M392.249,311.119h2.309c0-1.098-0.354-1.646-1.061-1.646
				C392.778,309.473,392.362,310.022,392.249,311.119z"/>
		</g>
	</g>
	<g transform="matrix(1.3333,0,0,1.3333,-58,-18.4896) translate(262.2642,303.3672)">
		<g>
			<defs>
				<rect id="SVGID_75_" x="-317.379" y="-352.619" width="788.98" height="504.987"/>
			</defs>
			<clipPath id="SVGID_76_">
				<use xlink:href="#SVGID_75_"  style="overflow:visible;"/>
			</clipPath>
			<path style="clip-path:url(#SVGID_76_);" d="M0.914,25.529v-1.272c0.859,0.359,1.594,0.539,2.203,0.539
				c0.711,0,1.066-0.242,1.066-0.727c0-0.312-0.293-0.586-0.879-0.82l-0.586-0.234c-0.637-0.258-1.092-0.535-1.365-0.832
				c-0.273-0.297-0.41-0.664-0.41-1.102c0-0.609,0.232-1.083,0.697-1.421c0.465-0.338,1.115-0.507,1.951-0.507
				c0.523,0,1.146,0.076,1.869,0.228v1.219c-0.695-0.242-1.271-0.363-1.728-0.363c-0.719,0-1.078,0.223-1.078,0.668
				c0,0.293,0.266,0.541,0.797,0.744l0.504,0.193c0.754,0.285,1.278,0.574,1.573,0.867c0.295,0.293,0.442,0.67,0.442,1.131
				c0,0.605-0.251,1.097-0.753,1.474c-0.502,0.377-1.155,0.566-1.96,0.566C2.484,25.881,1.703,25.764,0.914,25.529z M7.869,25.734
				v-6.434h1.734v6.434H7.869z M7.869,18.217V16.77h1.734v1.447H7.869z M11.772,25.734v-6.434h1.734v1.213
				c0.566-0.906,1.297-1.359,2.191-1.359c0.574,0,1.027,0.182,1.359,0.545c0.332,0.363,0.498,0.859,0.498,1.488v4.547H15.82v-4.119
				c0-0.73-0.242-1.096-0.727-1.096c-0.551,0-1.08,0.389-1.588,1.166v4.049H11.772z M19.699,27.732l0.141-1.26
				c0.715,0.328,1.397,0.492,2.045,0.492c0.641,0,1.103-0.137,1.389-0.41c0.285-0.273,0.428-0.717,0.428-1.33v-0.879
				c-0.422,0.926-1.119,1.389-2.092,1.389c-0.766,0-1.373-0.286-1.822-0.858s-0.674-1.347-0.674-2.323
				c0-1.027,0.252-1.851,0.756-2.47c0.504-0.619,1.174-0.929,2.01-0.929c0.656,0,1.264,0.266,1.822,0.797l0.182-0.65h1.559v4.91
				c0,0.98-0.06,1.688-0.179,2.121s-0.351,0.803-0.694,1.108c-0.578,0.5-1.393,0.75-2.443,0.75
				C21.379,28.19,20.57,28.037,19.699,27.732z M23.701,23.338v-2.373c-0.418-0.473-0.855-0.709-1.312-0.709
				c-0.438,0-0.785,0.199-1.043,0.598c-0.258,0.398-0.387,0.934-0.387,1.605c0,1.258,0.404,1.887,1.213,1.887
				C22.73,24.346,23.24,24.01,23.701,23.338z M30.27,25.881c-1.004,0-1.802-0.304-2.394-0.911c-0.592-0.607-0.888-1.425-0.888-2.452
				c0-1.039,0.298-1.859,0.893-2.461c0.596-0.602,1.405-0.902,2.429-0.902c1.027,0,1.839,0.301,2.435,0.902
				c0.596,0.602,0.894,1.418,0.894,2.449c0,1.055-0.299,1.881-0.896,2.479C32.145,25.582,31.32,25.881,30.27,25.881z M30.299,24.797
				c0.996,0,1.494-0.764,1.494-2.291c0-0.699-0.132-1.252-0.396-1.658c-0.264-0.406-0.626-0.609-1.087-0.609
				c-0.457,0-0.817,0.203-1.081,0.609c-0.264,0.406-0.396,0.963-0.396,1.67c0,0.699,0.131,1.254,0.393,1.664
				C29.488,24.592,29.846,24.797,30.299,24.797z M35.232,25.734v-9.252h1.734v9.252H35.232z M41.836,25.881
				c-1.004,0-1.802-0.304-2.393-0.911c-0.592-0.607-0.888-1.425-0.888-2.452c0-1.039,0.298-1.859,0.894-2.461
				c0.596-0.602,1.405-0.902,2.429-0.902c1.027,0,1.839,0.301,2.435,0.902c0.596,0.602,0.894,1.418,0.894,2.449
				c0,1.055-0.299,1.881-0.896,2.479C43.711,25.582,42.887,25.881,41.836,25.881z M41.865,24.797c0.996,0,1.494-0.764,1.494-2.291
				c0-0.699-0.132-1.252-0.396-1.658c-0.264-0.406-0.626-0.609-1.087-0.609c-0.457,0-0.817,0.203-1.081,0.609
				c-0.264,0.406-0.396,0.963-0.396,1.67c0,0.699,0.131,1.254,0.393,1.664C41.055,24.592,41.412,24.797,41.865,24.797z
				 M50.801,27.732l0.141-1.26c0.715,0.328,1.397,0.492,2.045,0.492c0.641,0,1.104-0.137,1.389-0.41
				c0.285-0.273,0.428-0.717,0.428-1.33v-0.879c-0.422,0.926-1.119,1.389-2.092,1.389c-0.766,0-1.373-0.286-1.822-0.858
				c-0.449-0.572-0.674-1.347-0.674-2.323c0-1.027,0.252-1.851,0.756-2.47c0.504-0.619,1.174-0.929,2.01-0.929
				c0.656,0,1.264,0.266,1.822,0.797l0.182-0.65h1.559v4.91c0,0.98-0.06,1.688-0.179,2.121c-0.119,0.434-0.351,0.803-0.694,1.108
				c-0.578,0.5-1.393,0.75-2.443,0.75C52.48,28.19,51.672,28.037,50.801,27.732z M54.803,23.338v-2.373
				c-0.418-0.473-0.855-0.709-1.312-0.709c-0.437,0-0.785,0.199-1.043,0.598c-0.258,0.398-0.387,0.934-0.387,1.605
				c0,1.258,0.404,1.887,1.213,1.887C53.832,24.346,54.342,24.01,54.803,23.338z M58.67,25.734v-6.434h1.734v1.213
				c0.449-0.906,1.133-1.359,2.051-1.359c0.109,0,0.217,0.012,0.322,0.035v1.547c-0.246-0.09-0.475-0.135-0.686-0.135
				c-0.691,0-1.254,0.35-1.688,1.049v4.084H58.67z M67.277,25.043c-0.578,0.559-1.197,0.838-1.857,0.838
				c-0.562,0-1.02-0.172-1.371-0.516c-0.352-0.344-0.527-0.789-0.527-1.336c0-0.711,0.284-1.259,0.853-1.644
				c0.568-0.385,1.382-0.577,2.44-0.577h0.463v-0.586c0-0.668-0.381-1.002-1.142-1.002c-0.676,0-1.359,0.191-2.051,0.574V19.6
				c0.785-0.297,1.562-0.445,2.332-0.445c1.684,0,2.525,0.67,2.525,2.01v2.848c0,0.504,0.162,0.756,0.486,0.756
				c0.059,0,0.135-0.008,0.229-0.023l0.041,0.973c-0.367,0.109-0.691,0.164-0.973,0.164c-0.711,0-1.168-0.279-1.371-0.838H67.277z
				 M67.277,24.111v-1.307h-0.41c-1.121,0-1.682,0.352-1.682,1.055c0,0.238,0.081,0.438,0.243,0.601
				c0.162,0.162,0.362,0.243,0.601,0.243C66.436,24.703,66.852,24.506,67.277,24.111z M71.361,25.734v-5.35h-0.885v-1.084h0.885
				v-0.463c0-1.668,0.791-2.502,2.373-2.502c0.512,0,1.039,0.074,1.582,0.223v1.172c-0.492-0.207-0.934-0.311-1.324-0.311
				c-0.598,0-0.896,0.451-0.896,1.353v0.527h1.629v1.084h-1.629v5.35H71.361z M76.154,25.734v-6.434h1.734v6.434H76.154z
				 M76.154,18.217V16.77h1.734v1.447H76.154z M84.803,25.594c-0.719,0.191-1.385,0.287-1.998,0.287
				c-1.027,0-1.839-0.302-2.435-0.905c-0.596-0.604-0.894-1.425-0.894-2.464c0-1.051,0.307-1.873,0.92-2.467
				c0.613-0.594,1.461-0.891,2.543-0.891c0.523,0,1.127,0.084,1.811,0.252v1.254c-0.711-0.23-1.279-0.346-1.705-0.346
				c-0.52,0-0.938,0.199-1.254,0.598c-0.316,0.398-0.475,0.928-0.475,1.588c0,0.676,0.171,1.217,0.513,1.623
				c0.342,0.406,0.798,0.609,1.368,0.609c0.52,0,1.055-0.113,1.605-0.34V25.594z M89.145,25.881c-1.004,0-1.802-0.304-2.394-0.911
				c-0.592-0.607-0.888-1.425-0.888-2.452c0-1.039,0.298-1.859,0.894-2.461c0.596-0.602,1.405-0.902,2.429-0.902
				c1.027,0,1.839,0.301,2.435,0.902c0.596,0.602,0.894,1.418,0.894,2.449c0,1.055-0.299,1.881-0.896,2.479
				C91.02,25.582,90.195,25.881,89.145,25.881z M89.174,24.797c0.996,0,1.494-0.764,1.494-2.291c0-0.699-0.132-1.252-0.396-1.658
				c-0.264-0.406-0.626-0.609-1.087-0.609c-0.457,0-0.817,0.203-1.081,0.609c-0.264,0.406-0.395,0.963-0.396,1.67
				c0,0.699,0.131,1.254,0.393,1.664C88.363,24.592,88.721,24.797,89.174,24.797z"/>
		</g>
	</g>
	<g transform="matrix(1.3333,0,0,1.3333,-58,-18.4896) translate(5,5)">
		<g>
			<defs>
				<rect id="SVGID_77_" x="-60.115" y="-54.251" width="788.98" height="504.987"/>
			</defs>
			<clipPath id="SVGID_78_">
				<use xlink:href="#SVGID_77_"  style="overflow:visible;"/>
			</clipPath>
			
				<line style="clip-path:url(#SVGID_78_);fill:none;stroke:#C0C0C0;stroke-linecap:square;stroke-miterlimit:10;stroke-opacity:0.502;" x1="94" y1="204.525" x2="234" y2="141.232"/>
		</g>
	</g>
	<g transform="matrix(1.3333,0,0,1.3333,-58,-18.4896)">
		<g>
			<defs>
				<rect id="SVGID_79_" x="-55.115" y="-49.251" width="788.98" height="504.987"/>
			</defs>
			<clipPath id="SVGID_80_">
				<use xlink:href="#SVGID_79_"  style="overflow:visible;"/>
			</clipPath>
			
				<line style="clip-path:url(#SVGID_80_);fill:none;stroke:#000000;stroke-linecap:square;stroke-miterlimit:10;" x1="94" y1="204.525" x2="234" y2="141.232"/>
		</g>
	</g>
	<g transform="matrix(1.3333,0,0,1.3333,-58,-18.4896) translate(5,5)">
		<g>
			<defs>
				<rect id="SVGID_81_" x="-60.115" y="-54.251" width="788.98" height="504.987"/>
			</defs>
			<clipPath id="SVGID_82_">
				<use xlink:href="#SVGID_81_"  style="overflow:visible;"/>
			</clipPath>
			
				<line style="clip-path:url(#SVGID_82_);fill:none;stroke:#C0C0C0;stroke-linecap:square;stroke-miterlimit:10;stroke-opacity:0.502;" x1="94" y1="214.497" x2="234" y2="221.01"/>
		</g>
	</g>
	<g transform="matrix(1.3333,0,0,1.3333,-58,-18.4896)">
		<g>
			<defs>
				<rect id="SVGID_83_" x="-55.115" y="-49.251" width="788.98" height="504.987"/>
			</defs>
			<clipPath id="SVGID_84_">
				<use xlink:href="#SVGID_83_"  style="overflow:visible;"/>
			</clipPath>
			
				<line style="clip-path:url(#SVGID_84_);fill:none;stroke:#000000;stroke-linecap:square;stroke-miterlimit:10;" x1="94" y1="214.497" x2="234" y2="221.01"/>
		</g>
	</g>
	<g transform="matrix(1.3333,0,0,1.3333,-58,-18.4896) translate(5,5)">
		<g>
			<defs>
				<rect id="SVGID_85_" x="-60.115" y="-54.251" width="788.98" height="504.987"/>
			</defs>
			<clipPath id="SVGID_86_">
				<use xlink:href="#SVGID_85_"  style="overflow:visible;"/>
			</clipPath>
			
				<line style="clip-path:url(#SVGID_86_);fill:none;stroke:#C0C0C0;stroke-linecap:square;stroke-miterlimit:10;stroke-opacity:0.502;" x1="94" y1="221.67" x2="253.994" y2="286.5"/>
		</g>
	</g>
	<g transform="matrix(1.3333,0,0,1.3333,-58,-18.4896)">
		<g>
			<defs>
				<rect id="SVGID_87_" x="-55.115" y="-49.251" width="788.98" height="504.987"/>
			</defs>
			<clipPath id="SVGID_88_">
				<use xlink:href="#SVGID_87_"  style="overflow:visible;"/>
			</clipPath>
			
				<line style="clip-path:url(#SVGID_88_);fill:none;stroke:#000000;stroke-linecap:square;stroke-miterlimit:10;" x1="94" y1="221.67" x2="253.994" y2="286.5"/>
		</g>
	</g>
	<g transform="matrix(1.3333,0,0,1.3333,-58,-18.4896) translate(5,5)">
		<g>
			<defs>
				<rect id="SVGID_89_" x="-60.115" y="-54.251" width="788.98" height="504.987"/>
			</defs>
			<clipPath id="SVGID_90_">
				<use xlink:href="#SVGID_89_"  style="overflow:visible;"/>
			</clipPath>
			<ellipse style="clip-path:url(#SVGID_90_);fill:#C0C0C0;fill-opacity:0.502;" cx="519.5" cy="180.32" rx="96.5" ry="34.566"/>
		</g>
		<g>
			<defs>
				<rect id="SVGID_91_" x="-60.115" y="-54.251" width="788.98" height="504.987"/>
			</defs>
			<clipPath id="SVGID_92_">
				<use xlink:href="#SVGID_91_"  style="overflow:visible;"/>
			</clipPath>
			
				<ellipse style="clip-path:url(#SVGID_92_);fill:none;stroke:#C0C0C0;stroke-width:2;stroke-linecap:square;stroke-miterlimit:10;stroke-opacity:0.502;" cx="519.5" cy="180.32" rx="96.5" ry="34.566"/>
		</g>
	</g>
	<g transform="matrix(1.3333,0,0,1.3333,-58,-18.4896)">
		<g>
			<defs>
				<rect id="SVGID_93_" x="-55.115" y="-49.251" width="788.98" height="504.987"/>
			</defs>
			<clipPath id="SVGID_94_">
				<use xlink:href="#SVGID_93_"  style="overflow:visible;"/>
			</clipPath>
			
				<linearGradient id="SVGID_95_" gradientUnits="userSpaceOnUse" x1="383.5714" y1="328.6922" x2="576.5714" y2="258.6922" gradientTransform="matrix(1.3333 0 0 -1.3333 -88.5183 583.5281)">
				<stop  offset="0" style="stop-color:#FFFFFF"/>
				<stop  offset="1" style="stop-color:#FFFFCC"/>
			</linearGradient>
			<ellipse style="clip-path:url(#SVGID_94_);fill:url(#SVGID_95_);" cx="519.5" cy="180.32" rx="96.5" ry="34.566"/>
		</g>
		<g>
			<defs>
				<rect id="SVGID_96_" x="-55.115" y="-49.251" width="788.98" height="504.987"/>
			</defs>
			<clipPath id="SVGID_97_">
				<use xlink:href="#SVGID_96_"  style="overflow:visible;"/>
			</clipPath>
			
				<ellipse style="clip-path:url(#SVGID_97_);fill:none;stroke:#000000;stroke-width:2;stroke-linecap:square;stroke-miterlimit:10;" cx="519.5" cy="180.32" rx="96.5" ry="34.566"/>
		</g>
		<g>
			<defs>
				<rect id="SVGID_98_" x="-55.115" y="-49.252" width="788.98" height="504.987"/>
			</defs>
			<clipPath id="SVGID_99_">
				<use xlink:href="#SVGID_98_"  style="overflow:visible;"/>
			</clipPath>
			<path style="clip-path:url(#SVGID_99_);" d="M452.278,162.05h1.805v5.314c0,0.84,0.139,1.446,0.416,1.819
				c0.277,0.373,0.725,0.559,1.342,0.559c0.59,0,1.017-0.178,1.28-0.533c0.264-0.355,0.396-0.928,0.396-1.717v-5.443h1.57v5.326
				c0,0.801-0.076,1.411-0.228,1.831c-0.152,0.42-0.43,0.784-0.832,1.093c-0.551,0.426-1.291,0.639-2.221,0.639
				c-0.996,0-1.797-0.227-2.402-0.68c-0.418-0.313-0.71-0.683-0.876-1.11c-0.166-0.428-0.249-1.024-0.249-1.79V162.05z
				 M468.163,170.377c-0.84,0.375-1.842,0.562-3.006,0.562c-1.422,0-2.529-0.4-3.322-1.201c-0.793-0.801-1.189-1.918-1.189-3.352
				c0-1.461,0.399-2.585,1.198-3.372c0.799-0.787,1.938-1.181,3.419-1.181c0.945,0,1.885,0.111,2.818,0.334v1.412
				c-1.059-0.371-1.945-0.557-2.66-0.557c-0.914,0-1.619,0.29-2.115,0.87c-0.496,0.58-0.744,1.403-0.744,2.47
				c0,1.047,0.267,1.863,0.8,2.449c0.533,0.586,1.274,0.879,2.224,0.879c0.852,0,1.711-0.215,2.578-0.645V170.377z M468.784,170.722
				l3.375-8.672h1.805l3.375,8.672h-1.852l-0.902-2.314h-3.586l-0.902,2.314H468.784z M471.444,167.253h2.695l-1.348-3.457
				L471.444,167.253z M482.096,170.722v-2.314h-4.049v-1.301l3.978-5.057h1.588v5.057h1.014v1.301h-1.014v2.314H482.096z
				 M479.436,167.107h2.695v-3.398L479.436,167.107z M492.708,170.722l-3.205-8.672h1.928l2.484,6.709l2.402-6.709h1.301l-3.1,8.672
				H492.708z M498.825,170.722v-6.434h1.734v6.434H498.825z M498.825,163.205v-1.447h1.734v1.447H498.825z M502.557,170.517v-1.271
				c0.859,0.359,1.594,0.539,2.203,0.539c0.711,0,1.066-0.242,1.066-0.727c0-0.312-0.293-0.586-0.879-0.82l-0.586-0.234
				c-0.637-0.258-1.092-0.535-1.365-0.832c-0.273-0.297-0.41-0.664-0.41-1.102c0-0.609,0.232-1.083,0.697-1.421
				c0.465-0.338,1.115-0.507,1.951-0.507c0.523,0,1.146,0.076,1.869,0.229v1.219c-0.695-0.242-1.271-0.363-1.729-0.363
				c-0.719,0-1.078,0.223-1.078,0.668c0,0.293,0.266,0.541,0.797,0.744l0.504,0.193c0.754,0.285,1.278,0.574,1.573,0.867
				c0.295,0.293,0.442,0.67,0.442,1.131c0,0.605-0.251,1.097-0.753,1.474c-0.502,0.377-1.155,0.565-1.96,0.565
				C504.128,170.869,503.346,170.752,502.557,170.517z M513.491,170.722v-1.213c-0.562,0.906-1.293,1.359-2.191,1.359
				c-0.574,0-1.027-0.182-1.359-0.545c-0.332-0.363-0.498-0.859-0.498-1.488v-4.547h1.734v4.119c0,0.73,0.244,1.096,0.732,1.096
				c0.547,0,1.074-0.389,1.582-1.166v-4.049h1.734v6.434H513.491z M520.545,170.031c-0.578,0.559-1.197,0.838-1.857,0.838
				c-0.562,0-1.02-0.172-1.371-0.516c-0.352-0.344-0.527-0.789-0.527-1.336c0-0.711,0.284-1.259,0.852-1.644
				c0.568-0.385,1.382-0.577,2.44-0.577h0.463v-0.586c0-0.668-0.381-1.002-1.143-1.002c-0.676,0-1.359,0.191-2.051,0.574v-1.195
				c0.785-0.297,1.562-0.445,2.332-0.445c1.684,0,2.525,0.67,2.525,2.01V169c0,0.504,0.162,0.756,0.486,0.756
				c0.059,0,0.135-0.008,0.229-0.023l0.041,0.973c-0.367,0.109-0.691,0.164-0.973,0.164c-0.711,0-1.168-0.279-1.371-0.838H520.545z
				 M520.545,169.099v-1.307h-0.41c-1.121,0-1.682,0.352-1.682,1.055c0,0.238,0.081,0.438,0.243,0.601
				c0.162,0.162,0.362,0.243,0.601,0.243C519.704,169.691,520.12,169.494,520.545,169.099z M524.448,170.722v-9.252h1.734v9.252
				H524.448z M528.35,170.722v-6.434h1.734v6.434H528.35z M528.35,163.205v-1.447h1.734v1.447H528.35z M531.889,170.722v-1.154
				l3.598-4.195h-3.434v-1.084h5.484v1.084l-3.598,4.195h3.668v1.154H531.889z M538.979,170.722v-1.154l3.598-4.195h-3.434v-1.084
				h5.484v1.084l-3.598,4.195h3.668v1.154H538.979z M549.584,170.031c-0.578,0.559-1.197,0.838-1.857,0.838
				c-0.563,0-1.02-0.172-1.371-0.516c-0.352-0.344-0.527-0.789-0.527-1.336c0-0.711,0.284-1.259,0.853-1.644
				c0.568-0.385,1.382-0.577,2.44-0.577h0.463v-0.586c0-0.668-0.381-1.002-1.143-1.002c-0.676,0-1.359,0.191-2.051,0.574v-1.195
				c0.785-0.297,1.562-0.445,2.332-0.445c1.684,0,2.525,0.67,2.525,2.01V169c0,0.504,0.162,0.756,0.486,0.756
				c0.059,0,0.135-0.008,0.229-0.023l0.041,0.973c-0.367,0.109-0.691,0.164-0.973,0.164c-0.711,0-1.168-0.279-1.371-0.838H549.584z
				 M549.584,169.099v-1.307h-0.41c-1.121,0-1.682,0.352-1.682,1.055c0,0.238,0.081,0.438,0.243,0.601
				c0.162,0.162,0.362,0.243,0.601,0.243C548.743,169.691,549.159,169.494,549.584,169.099z M553.124,170.722v-1.154l3.598-4.195
				h-3.434v-1.084h5.484v1.084l-3.598,4.195h3.668v1.154H553.124z M560.577,170.722v-6.434h1.734v6.434H560.577z M560.577,163.205
				v-1.447h1.734v1.447H560.577z M567.18,170.869c-1.004,0-1.802-0.304-2.393-0.911s-0.888-1.425-0.888-2.452
				c0-1.039,0.298-1.859,0.893-2.461c0.596-0.602,1.405-0.902,2.429-0.902c1.027,0,1.839,0.301,2.435,0.902
				c0.596,0.602,0.894,1.418,0.894,2.449c0,1.055-0.299,1.881-0.896,2.479C569.055,170.57,568.231,170.869,567.18,170.869z
				 M567.209,169.785c0.996,0,1.494-0.764,1.494-2.291c0-0.699-0.132-1.252-0.396-1.658c-0.264-0.406-0.626-0.609-1.087-0.609
				c-0.457,0-0.817,0.203-1.081,0.609c-0.264,0.406-0.396,0.963-0.396,1.67c0,0.699,0.131,1.254,0.393,1.664
				C566.399,169.58,566.756,169.785,567.209,169.785z M572.143,170.722v-6.434h1.734v1.213c0.566-0.906,1.297-1.359,2.191-1.359
				c0.574,0,1.027,0.182,1.359,0.545c0.332,0.363,0.498,0.859,0.498,1.488v4.547h-1.734v-4.119c0-0.73-0.242-1.096-0.727-1.096
				c-0.551,0-1.08,0.389-1.588,1.166v4.049H572.143z M585.262,170.505c-0.824,0.242-1.605,0.363-2.344,0.363
				c-1.074,0-1.922-0.305-2.543-0.914c-0.621-0.609-0.932-1.441-0.932-2.496c0-0.996,0.284-1.798,0.852-2.405
				c0.568-0.607,1.319-0.911,2.253-0.911c0.941,0,1.629,0.297,2.062,0.891c0.434,0.594,0.65,1.533,0.65,2.818h-3.99
				c0.117,1.227,0.791,1.84,2.021,1.84c0.582,0,1.238-0.135,1.969-0.404V170.505z M581.249,166.873h2.309
				c0-1.098-0.354-1.646-1.061-1.646C581.778,165.226,581.362,165.775,581.249,166.873z"/>
		</g>
	</g>
	<g transform="matrix(1.3333,0,0,1.3333,-58,-18.4896) translate(451.2642,159.1207)">
		<g>
			<defs>
				<rect id="SVGID_100_" x="-506.379" y="-208.372" width="788.98" height="504.987"/>
			</defs>
			<clipPath id="SVGID_101_">
				<use xlink:href="#SVGID_100_"  style="overflow:visible;"/>
			</clipPath>
			<path style="clip-path:url(#SVGID_101_);" d="M6.322,25.518c-0.824,0.242-1.606,0.363-2.344,0.363
				c-1.074,0-1.922-0.305-2.543-0.914c-0.621-0.609-0.932-1.441-0.932-2.496c0-0.996,0.284-1.798,0.852-2.405
				c0.568-0.607,1.319-0.911,2.253-0.911c0.941,0,1.629,0.297,2.062,0.891c0.434,0.594,0.65,1.533,0.65,2.818h-3.99
				c0.117,1.227,0.791,1.84,2.021,1.84c0.582,0,1.238-0.135,1.969-0.404V25.518z M2.309,21.885h2.309
				c0-1.098-0.354-1.646-1.061-1.646C2.838,20.238,2.422,20.787,2.309,21.885z M8.115,25.734v-6.434H9.85v1.213
				c0.449-0.906,1.133-1.359,2.051-1.359c0.109,0,0.217,0.012,0.322,0.035v1.547c-0.246-0.09-0.475-0.135-0.686-0.135
				c-0.691,0-1.254,0.35-1.688,1.049v4.084H8.115z M13.57,25.734v-6.434h1.734v1.213c0.449-0.906,1.133-1.359,2.051-1.359
				c0.109,0,0.217,0.012,0.322,0.035v1.547c-0.246-0.09-0.475-0.135-0.685-0.135c-0.691,0-1.254,0.35-1.688,1.049v4.084H13.57z
				 M21.727,25.881c-1.004,0-1.802-0.304-2.394-0.911c-0.592-0.607-0.888-1.425-0.888-2.452c0-1.039,0.298-1.859,0.894-2.461
				c0.596-0.602,1.405-0.902,2.429-0.902c1.027,0,1.839,0.301,2.435,0.902c0.596,0.602,0.894,1.418,0.894,2.449
				c0,1.055-0.299,1.881-0.896,2.479C23.602,25.582,22.777,25.881,21.727,25.881z M21.756,24.797c0.996,0,1.494-0.764,1.494-2.291
				c0-0.699-0.132-1.252-0.396-1.658c-0.264-0.406-0.626-0.609-1.087-0.609c-0.457,0-0.817,0.203-1.081,0.609
				c-0.264,0.406-0.396,0.963-0.396,1.67c0,0.699,0.131,1.254,0.393,1.664C20.945,24.592,21.303,24.797,21.756,24.797z
				 M26.69,25.734v-6.434h1.734v1.213c0.449-0.906,1.133-1.359,2.051-1.359c0.109,0,0.217,0.012,0.322,0.035v1.547
				c-0.246-0.09-0.475-0.135-0.686-0.135c-0.691,0-1.254,0.35-1.688,1.049v4.084H26.69z M37.383,25.518
				c-0.824,0.242-1.605,0.363-2.344,0.363c-1.074,0-1.922-0.305-2.543-0.914c-0.621-0.609-0.932-1.441-0.932-2.496
				c0-0.996,0.284-1.798,0.852-2.405c0.568-0.607,1.319-0.911,2.253-0.911c0.941,0,1.629,0.297,2.062,0.891
				c0.434,0.594,0.65,1.533,0.65,2.818h-3.99c0.117,1.227,0.791,1.84,2.021,1.84c0.582,0,1.238-0.135,1.969-0.404V25.518z
				 M33.369,21.885h2.309c0-1.098-0.354-1.646-1.061-1.646C33.898,20.238,33.482,20.787,33.369,21.885z M47.18,25.734v-1.213
				c-0.445,0.906-1.146,1.359-2.104,1.359c-0.773,0-1.381-0.283-1.822-0.85c-0.441-0.566-0.662-1.346-0.662-2.338
				c0-1.078,0.249-1.938,0.747-2.578c0.498-0.641,1.167-0.961,2.007-0.961c0.672,0,1.283,0.266,1.834,0.797v-3.469h1.74v9.252H47.18
				z M47.18,20.982c-0.418-0.469-0.865-0.703-1.342-0.703c-0.426,0-0.766,0.205-1.019,0.615c-0.254,0.41-0.381,0.961-0.381,1.652
				c0,1.316,0.422,1.975,1.266,1.975c0.516,0,1.008-0.33,1.477-0.99V20.982z M51.082,25.734v-6.434h1.734v6.434H51.082z
				 M51.082,18.217V16.77h1.734v1.447H51.082z M58.939,25.734v-6.434h1.734v6.434H58.939z M58.939,18.217V16.77h1.734v1.447H58.939z
				 M62.842,25.734v-6.434h1.734v1.213c0.566-0.906,1.297-1.359,2.191-1.359c0.574,0,1.027,0.182,1.359,0.545
				c0.332,0.363,0.498,0.859,0.498,1.488v4.547h-1.734v-4.119c0-0.73-0.242-1.096-0.727-1.096c-0.551,0-1.08,0.389-1.588,1.166
				v4.049H62.842z M74.771,25.734v-1.213c-0.445,0.906-1.146,1.359-2.104,1.359c-0.773,0-1.381-0.283-1.822-0.85
				c-0.441-0.566-0.662-1.346-0.662-2.338c0-1.078,0.249-1.938,0.747-2.578c0.498-0.641,1.167-0.961,2.007-0.961
				c0.672,0,1.283,0.266,1.834,0.797v-3.469h1.74v9.252H74.771z M74.771,20.982c-0.418-0.469-0.865-0.703-1.342-0.703
				c-0.426,0-0.766,0.205-1.02,0.615c-0.254,0.41-0.381,0.961-0.381,1.652c0,1.316,0.422,1.975,1.266,1.975
				c0.516,0,1.008-0.33,1.477-0.99V20.982z M78.674,25.734v-6.434h1.734v6.434H78.674z M78.674,18.217V16.77h1.734v1.447H78.674z
				 M82.576,25.734v-6.434h1.734v1.213c0.449-0.906,1.133-1.359,2.051-1.359c0.109,0,0.217,0.012,0.322,0.035v1.547
				c-0.246-0.09-0.475-0.135-0.686-0.135c-0.691,0-1.254,0.35-1.688,1.049v4.084H82.576z M88.031,25.734v-6.434h1.734v6.434H88.031z
				 M88.031,18.217V16.77h1.734v1.447H88.031z M91.57,25.734V24.58l3.598-4.195h-3.434v-1.084h5.484v1.084l-3.598,4.195h3.668v1.154
				H91.57z M98.66,25.734V24.58l3.598-4.195h-3.434v-1.084h5.484v1.084l-3.598,4.195h3.668v1.154H98.66z M108.814,25.881
				c-1.004,0-1.802-0.304-2.394-0.911c-0.592-0.607-0.888-1.425-0.888-2.452c0-1.039,0.298-1.859,0.894-2.461
				c0.596-0.602,1.405-0.902,2.429-0.902c1.027,0,1.839,0.301,2.435,0.902c0.596,0.602,0.894,1.418,0.894,2.449
				c0,1.055-0.299,1.881-0.896,2.479C110.689,25.582,109.865,25.881,108.814,25.881z M108.844,24.797
				c0.996,0,1.494-0.764,1.494-2.291c0-0.699-0.132-1.252-0.396-1.658c-0.264-0.406-0.626-0.609-1.087-0.609
				c-0.457,0-0.817,0.203-1.081,0.609c-0.264,0.406-0.396,0.963-0.396,1.67c0,0.699,0.131,1.254,0.393,1.664
				C108.033,24.592,108.391,24.797,108.844,24.797z"/>
		</g>
	</g>
	<g transform="matrix(1.3333,0,0,1.3333,-58,-18.4896) translate(451.2642,159.1207)">
		<g>
			<defs>
				<rect id="SVGID_102_" x="-506.379" y="-208.372" width="788.98" height="504.987"/>
			</defs>
			<clipPath id="SVGID_103_">
				<use xlink:href="#SVGID_102_"  style="overflow:visible;"/>
			</clipPath>
			<path style="clip-path:url(#SVGID_103_);" d="M1.084,39.867v-6.434h1.734v1.213c0.566-0.906,1.297-1.359,2.191-1.359
				c0.574,0,1.027,0.182,1.359,0.545c0.332,0.363,0.498,0.859,0.498,1.488v4.547H5.133v-4.119c0-0.73-0.242-1.096-0.727-1.096
				c-0.551,0-1.08,0.389-1.588,1.166v4.049H1.084z M11.666,40.014c-1.004,0-1.802-0.304-2.394-0.911
				c-0.592-0.607-0.888-1.425-0.888-2.452c0-1.039,0.298-1.859,0.894-2.461c0.596-0.602,1.405-0.902,2.429-0.902
				c1.027,0,1.839,0.301,2.435,0.902c0.596,0.602,0.894,1.418,0.894,2.449c0,1.055-0.299,1.881-0.897,2.479
				C13.541,39.715,12.717,40.014,11.666,40.014z M11.695,38.93c0.996,0,1.494-0.764,1.494-2.291c0-0.699-0.132-1.252-0.396-1.658
				c-0.264-0.406-0.626-0.609-1.087-0.609c-0.457,0-0.817,0.203-1.081,0.609c-0.264,0.406-0.396,0.963-0.396,1.67
				c0,0.699,0.131,1.254,0.392,1.664C10.885,38.725,11.242,38.93,11.695,38.93z M16.629,39.867v-6.434h1.734v1.213
				c0.566-0.906,1.297-1.359,2.191-1.359c0.574,0,1.027,0.182,1.359,0.545c0.332,0.363,0.498,0.859,0.498,1.488v4.547h-1.734v-4.119
				c0-0.73-0.242-1.096-0.726-1.096c-0.551,0-1.08,0.389-1.588,1.166v4.049H16.629z M30.053,39.867l-2.455-6.434h1.828l1.799,4.641
				l1.787-4.641h1.254l-2.478,6.434H30.053z M38.736,39.176c-0.578,0.559-1.197,0.838-1.857,0.838c-0.562,0-1.019-0.172-1.371-0.516
				c-0.352-0.344-0.527-0.789-0.527-1.336c0-0.711,0.284-1.259,0.853-1.644c0.568-0.385,1.382-0.577,2.44-0.577h0.463v-0.586
				c0-0.668-0.381-1.002-1.143-1.002c-0.676,0-1.359,0.191-2.051,0.574v-1.195c0.785-0.297,1.562-0.445,2.332-0.445
				c1.684,0,2.525,0.67,2.525,2.01v2.848c0,0.504,0.162,0.756,0.486,0.756c0.059,0,0.135-0.008,0.229-0.023l0.041,0.973
				c-0.367,0.109-0.691,0.164-0.973,0.164c-0.711,0-1.168-0.279-1.371-0.838H38.736z M38.736,38.244v-1.307h-0.41
				c-1.121,0-1.682,0.352-1.682,1.055c0,0.238,0.081,0.438,0.243,0.601c0.162,0.162,0.362,0.243,0.601,0.243
				C37.895,38.836,38.311,38.639,38.736,38.244z M42.639,39.867v-9.252h1.734v9.252H42.639z M46.541,39.867v-6.434h1.734v6.434
				H46.541z M46.541,32.35v-1.447h1.734v1.447H46.541z M54.492,39.867v-1.213c-0.445,0.906-1.146,1.359-2.104,1.359
				c-0.773,0-1.381-0.283-1.822-0.85c-0.441-0.566-0.662-1.346-0.662-2.338c0-1.078,0.249-1.938,0.747-2.578
				c0.498-0.641,1.167-0.961,2.007-0.961c0.672,0,1.283,0.266,1.834,0.797v-3.469h1.74v9.252H54.492z M54.492,35.115
				c-0.418-0.469-0.865-0.703-1.342-0.703c-0.426,0-0.766,0.205-1.019,0.615c-0.254,0.41-0.381,0.961-0.381,1.652
				c0,1.316,0.422,1.975,1.266,1.975c0.516,0,1.008-0.33,1.477-0.99V35.115z M61.096,40.014c-1.004,0-1.802-0.304-2.394-0.911
				c-0.592-0.607-0.888-1.425-0.888-2.452c0-1.039,0.298-1.859,0.894-2.461c0.596-0.602,1.405-0.902,2.429-0.902
				c1.027,0,1.839,0.301,2.435,0.902c0.596,0.602,0.893,1.418,0.893,2.449c0,1.055-0.299,1.881-0.896,2.479
				C62.971,39.715,62.146,40.014,61.096,40.014z M61.125,38.93c0.996,0,1.494-0.764,1.494-2.291c0-0.699-0.132-1.252-0.396-1.658
				c-0.264-0.406-0.626-0.609-1.087-0.609c-0.457,0-0.817,0.203-1.081,0.609c-0.264,0.406-0.396,0.963-0.396,1.67
				c0,0.699,0.131,1.254,0.393,1.664C60.314,38.725,60.672,38.93,61.125,38.93z"/>
		</g>
	</g>
	<g transform="matrix(1.3333,0,0,1.3333,-58,-18.4896) translate(384,27.8672)">
		<g>
			<defs>
				<rect id="SVGID_104_" x="-439.115" y="-77.119" width="788.98" height="504.987"/>
			</defs>
			<clipPath id="SVGID_105_">
				<use xlink:href="#SVGID_104_"  style="overflow:visible;"/>
			</clipPath>
			<path style="clip-path:url(#SVGID_105_);" d="M5.514,8.285L4.037,4.547L2.555,8.285H5.514z M6.815,11.602L5.871,9.199H2.197
				l-0.955,2.402H0.1l3.44-8.672h1.219l3.387,8.672H6.815z M9.434,13.916V5.238h1.154v1.195c0.473-0.891,1.182-1.336,2.127-1.336
				c0.766,0,1.368,0.279,1.808,0.838c0.439,0.559,0.659,1.322,0.659,2.291c0,1.055-0.249,1.905-0.747,2.552
				c-0.498,0.646-1.153,0.97-1.966,0.97c-0.754,0-1.381-0.289-1.881-0.867v3.035H9.434z M10.588,10.084
				c0.594,0.531,1.16,0.797,1.699,0.797c1.109,0,1.664-0.846,1.664-2.537c0-1.492-0.492-2.238-1.477-2.238
				c-0.645,0-1.273,0.35-1.887,1.049V10.084z M16.986,13.916V5.238h1.154v1.195c0.473-0.891,1.182-1.336,2.127-1.336
				c0.766,0,1.368,0.279,1.808,0.838c0.439,0.559,0.659,1.322,0.659,2.291c0,1.055-0.249,1.905-0.747,2.552
				c-0.498,0.646-1.153,0.97-1.966,0.97c-0.754,0-1.381-0.289-1.881-0.867v3.035H16.986z M18.141,10.084
				c0.594,0.531,1.16,0.797,1.699,0.797c1.109,0,1.664-0.846,1.664-2.537c0-1.492-0.492-2.238-1.477-2.238
				c-0.645,0-1.273,0.35-1.887,1.049V10.084z M24.539,11.602V2.35h1.154v9.252H24.539z M28.008,11.602V5.238h1.154v6.363H28.008z
				 M28.008,4.084V2.93h1.154v1.154H28.008z M33.961,11.748c-0.859,0-1.572-0.318-2.139-0.955c-0.566-0.637-0.85-1.439-0.85-2.408
				c0-1.035,0.28-1.842,0.841-2.42c0.561-0.578,1.343-0.867,2.347-0.867c0.496,0,1.051,0.068,1.664,0.205v0.967
				c-0.652-0.191-1.184-0.287-1.594-0.287c-0.59,0-1.063,0.222-1.421,0.665c-0.357,0.443-0.536,1.034-0.536,1.772
				c0,0.715,0.184,1.293,0.551,1.734c0.367,0.441,0.848,0.662,1.441,0.662c0.527,0,1.07-0.135,1.629-0.404v0.996
				C35.148,11.635,34.504,11.748,33.961,11.748z M40.904,10.793c-0.691,0.637-1.357,0.955-1.998,0.955
				c-0.527,0-0.965-0.165-1.312-0.495c-0.348-0.33-0.521-0.747-0.521-1.251c0-0.695,0.292-1.23,0.876-1.603
				c0.584-0.373,1.421-0.56,2.511-0.56h0.275V7.072c0-0.738-0.379-1.108-1.137-1.108c-0.609,0-1.268,0.188-1.975,0.562V5.572
				c0.777-0.316,1.506-0.475,2.186-0.475c0.711,0,1.235,0.16,1.573,0.48c0.338,0.32,0.507,0.818,0.507,1.494v2.883
				c0,0.66,0.203,0.99,0.609,0.99c0.051,0,0.125-0.008,0.223-0.023l0.082,0.639c-0.262,0.125-0.551,0.188-0.867,0.188
				C41.396,11.748,41.053,11.43,40.904,10.793z M40.734,10.166V8.519l-0.387-0.012c-0.633,0-1.145,0.12-1.535,0.36
				c-0.391,0.24-0.586,0.556-0.586,0.946c0,0.277,0.098,0.512,0.293,0.703c0.195,0.191,0.434,0.287,0.715,0.287
				C39.715,10.805,40.215,10.592,40.734,10.166z M43.816,11.602v-0.867l3.938-4.629h-3.756V5.238h5.18v0.867l-3.938,4.629h4.014
				v0.867H43.816z M51.129,11.602V5.238h1.154v6.363H51.129z M51.129,4.084V2.93h1.154v1.154H51.129z M57.088,11.748
				c-0.91,0-1.637-0.302-2.18-0.905c-0.543-0.604-0.814-1.411-0.814-2.423c0-1.023,0.272-1.833,0.817-2.429
				c0.545-0.596,1.284-0.893,2.218-0.893c0.934,0,1.673,0.298,2.218,0.893c0.545,0.596,0.817,1.401,0.817,2.417
				c0,1.039-0.273,1.855-0.82,2.449C58.797,11.451,58.045,11.748,57.088,11.748z M57.105,10.881c1.223,0,1.834-0.824,1.834-2.473
				c0-1.629-0.604-2.443-1.811-2.443c-1.203,0-1.805,0.818-1.805,2.455C55.324,10.061,55.918,10.881,57.105,10.881z M61.969,11.602
				V5.238h1.154v1.195c0.609-0.891,1.355-1.336,2.238-1.336c0.551,0,0.99,0.175,1.318,0.524c0.328,0.35,0.492,0.819,0.492,1.409
				v4.57h-1.154V7.406c0-0.473-0.069-0.809-0.208-1.011c-0.139-0.201-0.368-0.302-0.688-0.302c-0.707,0-1.373,0.463-1.998,1.389
				v4.119H61.969z M74.08,11.396c-0.773,0.234-1.436,0.352-1.986,0.352c-0.938,0-1.702-0.311-2.294-0.934
				c-0.592-0.623-0.888-1.431-0.888-2.423c0-0.965,0.261-1.756,0.782-2.373c0.522-0.617,1.189-0.926,2.001-0.926
				c0.77,0,1.364,0.273,1.784,0.82c0.42,0.547,0.63,1.324,0.63,2.332l-0.006,0.358H70.09c0.168,1.512,0.908,2.267,2.221,2.267
				c0.48,0,1.07-0.129,1.77-0.387V11.396z M70.143,7.734h2.807c0-1.184-0.441-1.775-1.324-1.775
				C70.738,5.959,70.244,6.551,70.143,7.734z"/>
		</g>
	</g>
	<g transform="matrix(1.3333,0,0,1.3333,-58,-18.4896) translate(5,5)">
		<g>
			<defs>
				<rect id="SVGID_106_" x="-60.115" y="-54.251" width="788.98" height="504.987"/>
			</defs>
			<clipPath id="SVGID_107_">
				<use xlink:href="#SVGID_106_"  style="overflow:visible;"/>
			</clipPath>
			
				<line style="clip-path:url(#SVGID_107_);fill:none;stroke:#C0C0C0;stroke-linecap:square;stroke-miterlimit:10;stroke-opacity:0.502;" x1="407" y1="129.104" x2="460.384" y2="145.754"/>
		</g>
		<g>
			<defs>
				<rect id="SVGID_108_" x="-60.115" y="-54.251" width="788.98" height="504.987"/>
			</defs>
			<clipPath id="SVGID_109_">
				<use xlink:href="#SVGID_108_"  style="overflow:visible;"/>
			</clipPath>
			
				<line style="clip-path:url(#SVGID_109_);fill:none;stroke:#C0C0C0;stroke-linecap:square;stroke-miterlimit:10;stroke-opacity:0.502;" x1="407" y1="129.104" x2="418.707" y2="126.47"/>
		</g>
		<g>
			<defs>
				<rect id="SVGID_110_" x="-60.115" y="-54.251" width="788.98" height="504.987"/>
			</defs>
			<clipPath id="SVGID_111_">
				<use xlink:href="#SVGID_110_"  style="overflow:visible;"/>
			</clipPath>
			
				<line style="clip-path:url(#SVGID_111_);fill:none;stroke:#C0C0C0;stroke-linecap:square;stroke-miterlimit:10;stroke-opacity:0.502;" x1="407" y1="129.104" x2="415.135" y2="137.926"/>
		</g>
	</g>
	<g transform="matrix(1.3333,0,0,1.3333,-58,-18.4896)">
		<g>
			<defs>
				<rect id="SVGID_112_" x="-55.115" y="-49.251" width="788.98" height="504.987"/>
			</defs>
			<clipPath id="SVGID_113_">
				<use xlink:href="#SVGID_112_"  style="overflow:visible;"/>
			</clipPath>
			
				<line style="clip-path:url(#SVGID_113_);fill:none;stroke:#000000;stroke-miterlimit:10;stroke-dasharray:5,5;" x1="407" y1="129.104" x2="460.384" y2="145.754"/>
		</g>
		<g>
			<defs>
				<rect id="SVGID_114_" x="-55.115" y="-49.251" width="788.98" height="504.987"/>
			</defs>
			<clipPath id="SVGID_115_">
				<use xlink:href="#SVGID_114_"  style="overflow:visible;"/>
			</clipPath>
			
				<line style="clip-path:url(#SVGID_115_);fill:none;stroke:#000000;stroke-linecap:square;stroke-miterlimit:10;" x1="407" y1="129.104" x2="418.707" y2="126.47"/>
		</g>
		<g>
			<defs>
				<rect id="SVGID_116_" x="-55.115" y="-49.251" width="788.98" height="504.987"/>
			</defs>
			<clipPath id="SVGID_117_">
				<use xlink:href="#SVGID_116_"  style="overflow:visible;"/>
			</clipPath>
			
				<line style="clip-path:url(#SVGID_117_);fill:none;stroke:#000000;stroke-linecap:square;stroke-miterlimit:10;" x1="407" y1="129.104" x2="415.135" y2="137.926"/>
		</g>
	</g>
	<g transform="matrix(1.3333,0,0,1.3333,-58,-18.4896) translate(433.6921,134.2961)">
		<g>
			<defs>
				<rect id="SVGID_118_" x="-488.807" y="-183.548" width="788.98" height="504.987"/>
			</defs>
			<clipPath id="SVGID_119_">
				<use xlink:href="#SVGID_118_"  style="overflow:visible;"/>
			</clipPath>
			<path style="clip-path:url(#SVGID_119_);" d="M8.238,0L1.301-3.469l6.938-3.469v0.967L3.24-3.469l4.998,2.496V0z M17.777,0
				L10.84-3.469l6.937-3.469v0.967l-4.998,2.502l4.998,2.496V0z M24.896-0.205c-0.773,0.234-1.436,0.352-1.986,0.352
				c-0.938,0-1.702-0.312-2.294-0.935c-0.592-0.623-0.888-1.431-0.888-2.423c0-0.965,0.261-1.756,0.782-2.373
				c0.522-0.617,1.189-0.926,2.001-0.926c0.77,0,1.364,0.273,1.784,0.82c0.42,0.547,0.63,1.324,0.63,2.332L24.92-3h-4.014
				c0.168,1.512,0.908,2.268,2.221,2.268c0.48,0,1.07-0.129,1.769-0.387V-0.205z M20.959-3.867h2.807
				c0-1.184-0.441-1.775-1.324-1.775C21.555-5.643,21.061-5.051,20.959-3.867z M26.279,0l2.42-3.287l-2.35-3.076h1.371l1.857,2.449
				l1.682-2.449h1.125l-2.203,3.228L32.578,0h-1.371l-1.916-2.52L27.44,0H26.279z M36.188,0.147c-0.586,0-1.043-0.168-1.371-0.504
				c-0.328-0.336-0.492-0.803-0.492-1.4v-3.738h-0.797v-0.867h0.797v-1.154l1.154-0.111v1.266h1.664v0.867h-1.664v3.527
				c0,0.832,0.359,1.248,1.078,1.248c0.152,0,0.338-0.025,0.557-0.076V0C36.758,0.098,36.449,0.147,36.188,0.147z M43.43-0.205
				c-0.773,0.234-1.436,0.352-1.986,0.352c-0.938,0-1.702-0.312-2.294-0.935s-0.888-1.431-0.888-2.423
				c0-0.965,0.261-1.756,0.782-2.373c0.522-0.617,1.189-0.926,2.001-0.926c0.77,0,1.364,0.273,1.784,0.82
				c0.42,0.547,0.63,1.324,0.63,2.332L43.453-3h-4.014c0.168,1.512,0.908,2.268,2.221,2.268c0.48,0,1.07-0.129,1.77-0.387V-0.205z
				 M39.492-3.867h2.807c0-1.184-0.441-1.775-1.324-1.775C40.088-5.643,39.594-5.051,39.492-3.867z M45.451,0v-6.363h1.154v1.195
				c0.609-0.891,1.355-1.336,2.238-1.336c0.551,0,0.99,0.175,1.318,0.524c0.328,0.35,0.492,0.819,0.492,1.409V0H49.5v-4.195
				c0-0.473-0.069-0.81-0.208-1.011c-0.139-0.201-0.368-0.302-0.688-0.302c-0.707,0-1.373,0.463-1.998,1.389V0H45.451z M56.982,0
				v-1.195c-0.469,0.895-1.176,1.342-2.121,1.342c-0.766,0-1.368-0.279-1.808-0.838c-0.439-0.559-0.659-1.322-0.659-2.291
				c0-1.059,0.249-1.91,0.747-2.555s1.153-0.967,1.966-0.967c0.754,0,1.379,0.289,1.875,0.867v-3.615h1.16V0H56.982z M56.982-4.846
				c-0.598-0.527-1.164-0.791-1.699-0.791c-1.105,0-1.658,0.846-1.658,2.537c0,1.488,0.492,2.232,1.477,2.232
				c0.641,0,1.268-0.35,1.881-1.049V-4.846z M60.598,0l6.938-3.469l-6.938-3.469v0.967l4.998,2.502l-4.998,2.496V0z M70.137,0
				l6.938-3.469l-6.938-3.469v0.967l4.998,2.502l-4.998,2.496V0z"/>
		</g>
	</g>
</g>
</svg>
