<?xml version="1.0" encoding="utf-8"?>
<!-- Generator: Adobe Illustrator 17.0.0, SVG Export Plug-In . SVG Version: 6.00 Build 0)  -->
<!DOCTYPE svg PUBLIC "-//W3C//DTD SVG 1.1//EN" "http://www.w3.org/Graphics/SVG/1.1/DTD/svg11.dtd">
<svg version="1.1" id="Livello_1" xmlns="http://www.w3.org/2000/svg" xmlns:xlink="http://www.w3.org/1999/xlink" x="0px" y="0px"
	 width="21.671px" height="36.135px" viewBox="1065.709 1095.594 21.671 36.135"
	 enable-background="new 1065.709 1095.594 21.671 36.135" xml:space="preserve" style="fill: #ff0000;">
<title>map pin yellow</title>
<g>
	<title>Layer 1</title>
	<path id="svg_2" style="fill: inherit;" stroke="#000000" stroke-width="0.74" stroke-miterlimit="10" d="M1076.572,1129.833
		c-0.775-3.806-2.142-6.973-3.798-9.909c-1.228-2.177-2.651-4.187-3.967-6.299c-0.439-0.705-0.819-1.45-1.241-2.181
		c-0.844-1.463-1.529-3.159-1.485-5.359c0.042-2.149,0.664-3.874,1.561-5.283c1.474-2.319,3.944-4.22,7.258-4.719
		c2.709-0.408,5.25,0.282,7.051,1.335c1.472,0.861,2.612,2.01,3.479,3.366c0.904,1.414,1.527,3.085,1.579,5.265
		c0.027,1.117-0.156,2.151-0.414,3.008c-0.261,0.868-0.68,1.594-1.053,2.369c-0.728,1.513-1.641,2.9-2.557,4.287
		C1080.255,1119.845,1077.694,1124.059,1076.572,1129.833z"/>
	<circle id="svg_4" cx="1076.625" cy="1105.441" r="3.667" fill="black"/>
</g>
</svg>
